<?xml version="1.0" encoding="UTF-8" standalone="no"?>
<!-- Created with Inkscape (http://www.inkscape.org/) -->

<svg
   version="1.1"
   id="svg3207"
   width="866.11053"
   height="985.86389"
   viewBox="0 0 866.11056 985.86392"
   sodipodi:docname="Vector 2.ai.ps"
   xmlns:inkscape="http://www.inkscape.org/namespaces/inkscape"
   xmlns:sodipodi="http://sodipodi.sourceforge.net/DTD/sodipodi-0.dtd"
   xmlns="http://www.w3.org/2000/svg"
   xmlns:svg="http://www.w3.org/2000/svg">
  <defs
     id="defs3211">
    <clipPath
       clipPathUnits="userSpaceOnUse"
       id="clipPath3243">
      <path
         d="m 2444.69,5507.14 h 410.648 v 843.641 H 2444.69 Z"
         id="path3241" />
    </clipPath>
    <clipPath
       clipPathUnits="userSpaceOnUse"
       id="clipPath3249">
      <path
         d="m 2444.69,5507.14 h 410.65 v 843.64 h -410.65 z"
         id="path3247" />
    </clipPath>
    <clipPath
       clipPathUnits="userSpaceOnUse"
       id="clipPath3253">
      <path
         d="m 2444.69,5507.14 h 410.648 v 843.641 H 2444.69 Z"
         id="path3251" />
    </clipPath>
    <clipPath
       clipPathUnits="userSpaceOnUse"
       id="clipPath3271">
      <path
         d="m 2391.6,5209.31 h 2084.37 v 1263.2 H 2391.6 Z"
         id="path3269" />
    </clipPath>
    <clipPath
       clipPathUnits="userSpaceOnUse"
       id="clipPath3277">
      <path
         d="m 2391.6,5209.31 h 2084.37 v 1263.2 H 2391.6 Z"
         id="path3275" />
    </clipPath>
    <clipPath
       clipPathUnits="userSpaceOnUse"
       id="clipPath3281">
      <path
         d="m 2391.6,5209.31 h 2084.37 v 1263.2 H 2391.6 Z"
         id="path3279" />
    </clipPath>
    <clipPath
       clipPathUnits="userSpaceOnUse"
       id="clipPath3299">
      <path
         d="M 6711.23,4471.01 H 8634.45 V 6334.92 H 6711.23 Z"
         id="path3297" />
    </clipPath>
    <clipPath
       clipPathUnits="userSpaceOnUse"
       id="clipPath3305">
      <path
         d="M 6711.23,4471.01 H 8634.45 V 6334.92 H 6711.23 Z"
         id="path3303" />
    </clipPath>
    <clipPath
       clipPathUnits="userSpaceOnUse"
       id="clipPath3309">
      <path
         d="M 6711.23,4471.01 H 8634.45 V 6334.92 H 6711.23 Z"
         id="path3307" />
    </clipPath>
    <clipPath
       clipPathUnits="userSpaceOnUse"
       id="clipPath3327">
      <path
         d="M 2518.49,3816.65 H 8588.33 V 6487.37 H 2518.49 Z"
         id="path3325" />
    </clipPath>
    <clipPath
       clipPathUnits="userSpaceOnUse"
       id="clipPath3333">
      <path
         d="M 2518.49,3816.65 H 8588.33 V 6487.37 H 2518.49 Z"
         id="path3331" />
    </clipPath>
    <clipPath
       clipPathUnits="userSpaceOnUse"
       id="clipPath3337">
      <path
         d="M 2518.49,3816.65 H 8588.33 V 6487.37 H 2518.49 Z"
         id="path3335" />
    </clipPath>
    <clipPath
       clipPathUnits="userSpaceOnUse"
       id="clipPath3355">
      <path
         d="M 2627.21,3061.31 H 8398.2 V 4495.48 H 2627.21 Z"
         id="path3353" />
    </clipPath>
    <clipPath
       clipPathUnits="userSpaceOnUse"
       id="clipPath3361">
      <path
         d="M 2627.21,3061.31 H 8398.2 V 4495.48 H 2627.21 Z"
         id="path3359" />
    </clipPath>
    <clipPath
       clipPathUnits="userSpaceOnUse"
       id="clipPath3365">
      <path
         d="M 2627.21,3061.31 H 8398.2 V 4495.48 H 2627.21 Z"
         id="path3363" />
    </clipPath>
    <clipPath
       clipPathUnits="userSpaceOnUse"
       id="clipPath3391">
      <path
         d="M 5053.64,2676.98 H 8334.85 V 3723.04 H 5053.64 Z"
         id="path3389" />
    </clipPath>
    <clipPath
       clipPathUnits="userSpaceOnUse"
       id="clipPath3397">
      <path
         d="M 5053.64,2676.98 H 8334.85 V 3723.04 H 5053.64 Z"
         id="path3395" />
    </clipPath>
    <clipPath
       clipPathUnits="userSpaceOnUse"
       id="clipPath3401">
      <path
         d="M 5053.64,2676.98 H 8334.85 V 3723.04 H 5053.64 Z"
         id="path3399" />
    </clipPath>
    <clipPath
       clipPathUnits="userSpaceOnUse"
       id="clipPath3421">
      <path
         d="m 5946.06,6595.12 h 1865.28 v 309.168 H 5946.06 Z"
         id="path3419" />
    </clipPath>
    <clipPath
       clipPathUnits="userSpaceOnUse"
       id="clipPath3427">
      <path
         d="m 5946.06,6595.12 h 1865.28 v 309.17 H 5946.06 Z"
         id="path3425" />
    </clipPath>
    <clipPath
       clipPathUnits="userSpaceOnUse"
       id="clipPath3431">
      <path
         d="m 5946.06,6595.12 h 1865.28 v 309.168 H 5946.06 Z"
         id="path3429" />
    </clipPath>
    <clipPath
       clipPathUnits="userSpaceOnUse"
       id="clipPath3449">
      <path
         d="m 4336.68,7310.31 h 2189.64 v 424.684 H 4336.68 Z"
         id="path3447" />
    </clipPath>
    <clipPath
       clipPathUnits="userSpaceOnUse"
       id="clipPath3455">
      <path
         d="m 4336.68,7310.31 h 2189.64 v 424.68 H 4336.68 Z"
         id="path3453" />
    </clipPath>
    <clipPath
       clipPathUnits="userSpaceOnUse"
       id="clipPath3459">
      <path
         d="m 4336.68,7310.31 h 2189.64 v 424.684 H 4336.68 Z"
         id="path3457" />
    </clipPath>
    <clipPath
       clipPathUnits="userSpaceOnUse"
       id="clipPath3477">
      <path
         d="m 3228.51,6475.21 h 1451.73 v 338.32 H 3228.51 Z"
         id="path3475" />
    </clipPath>
    <clipPath
       clipPathUnits="userSpaceOnUse"
       id="clipPath3483">
      <path
         d="m 3228.51,6475.21 h 1451.73 v 338.32 H 3228.51 Z"
         id="path3481" />
    </clipPath>
    <clipPath
       clipPathUnits="userSpaceOnUse"
       id="clipPath3487">
      <path
         d="m 3228.51,6475.21 h 1451.73 v 338.32 H 3228.51 Z"
         id="path3485" />
    </clipPath>
    <clipPath
       clipPathUnits="userSpaceOnUse"
       id="clipPath3509">
      <path
         d="m 6348.44,3671 h 513.469 V 4810.67 H 6348.44 Z"
         id="path3507" />
    </clipPath>
    <clipPath
       clipPathUnits="userSpaceOnUse"
       id="clipPath3515">
      <path
         d="m 6348.44,3671 h 513.47 v 1139.67 h -513.47 z"
         id="path3513" />
    </clipPath>
    <clipPath
       clipPathUnits="userSpaceOnUse"
       id="clipPath3519">
      <path
         d="m 6348.44,3671 h 513.469 V 4810.67 H 6348.44 Z"
         id="path3517" />
    </clipPath>
    <clipPath
       clipPathUnits="userSpaceOnUse"
       id="clipPath3537">
      <path
         d="m 4160.6,3671 h 513.48 V 4810.67 H 4160.6 Z"
         id="path3535" />
    </clipPath>
    <clipPath
       clipPathUnits="userSpaceOnUse"
       id="clipPath3543">
      <path
         d="m 4160.6,3671 h 513.48 V 4810.67 H 4160.6 Z"
         id="path3541" />
    </clipPath>
    <clipPath
       clipPathUnits="userSpaceOnUse"
       id="clipPath3547">
      <path
         d="m 4160.6,3671 h 513.48 V 4810.67 H 4160.6 Z"
         id="path3545" />
    </clipPath>
    <clipPath
       clipPathUnits="userSpaceOnUse"
       id="clipPath3565">
      <path
         d="m 5749.27,3521.59 h 262.09 v 878.441 h -262.09 z"
         id="path3563" />
    </clipPath>
    <clipPath
       clipPathUnits="userSpaceOnUse"
       id="clipPath3571">
      <path
         d="m 5749.27,3521.59 h 262.09 v 878.44 h -262.09 z"
         id="path3569" />
    </clipPath>
    <clipPath
       clipPathUnits="userSpaceOnUse"
       id="clipPath3575">
      <path
         d="m 5749.27,3521.59 h 262.09 v 878.441 h -262.09 z"
         id="path3573" />
    </clipPath>
    <clipPath
       clipPathUnits="userSpaceOnUse"
       id="clipPath3593">
      <path
         d="m 5001.82,3521.59 h 262.09 v 878.441 h -262.09 z"
         id="path3591" />
    </clipPath>
    <clipPath
       clipPathUnits="userSpaceOnUse"
       id="clipPath3599">
      <path
         d="m 5001.82,3521.59 h 262.09 v 878.44 h -262.09 z"
         id="path3597" />
    </clipPath>
    <clipPath
       clipPathUnits="userSpaceOnUse"
       id="clipPath3603">
      <path
         d="m 5001.82,3521.59 h 262.09 v 878.441 h -262.09 z"
         id="path3601" />
    </clipPath>
    <clipPath
       clipPathUnits="userSpaceOnUse"
       id="clipPath3621">
      <path
         d="M 4506.81,4778.33 H 6535.06 V 6077.61 H 4506.81 Z"
         id="path3619" />
    </clipPath>
    <clipPath
       clipPathUnits="userSpaceOnUse"
       id="clipPath3627">
      <path
         d="M 4506.81,4778.33 H 6535.06 V 6077.61 H 4506.81 Z"
         id="path3625" />
    </clipPath>
    <clipPath
       clipPathUnits="userSpaceOnUse"
       id="clipPath3631">
      <path
         d="M 4506.81,4778.33 H 6535.06 V 6077.61 H 4506.81 Z"
         id="path3629" />
    </clipPath>
    <clipPath
       clipPathUnits="userSpaceOnUse"
       id="clipPath3649">
      <path
         d="m 5356.94,5351.37 h 292.629 v 96.4375 H 5356.94 Z"
         id="path3647" />
    </clipPath>
    <clipPath
       clipPathUnits="userSpaceOnUse"
       id="clipPath3655">
      <path
         d="m 5356.94,5351.37 h 292.63 v 96.44 h -292.63 z"
         id="path3653" />
    </clipPath>
    <clipPath
       clipPathUnits="userSpaceOnUse"
       id="clipPath3659">
      <path
         d="m 5356.94,5351.37 h 292.629 v 96.4375 H 5356.94 Z"
         id="path3657" />
    </clipPath>
    <clipPath
       clipPathUnits="userSpaceOnUse"
       id="clipPath3707">
      <path
         d="m 4655.94,3766.98 h 255.008 v 558.059 H 4655.94 Z"
         id="path3705" />
    </clipPath>
    <clipPath
       clipPathUnits="userSpaceOnUse"
       id="clipPath3713">
      <path
         d="m 4655.94,3766.98 h 255.01 v 558.06 h -255.01 z"
         id="path3711" />
    </clipPath>
    <clipPath
       clipPathUnits="userSpaceOnUse"
       id="clipPath3717">
      <path
         d="m 4655.94,3766.98 h 255.008 v 558.059 H 4655.94 Z"
         id="path3715" />
    </clipPath>
    <clipPath
       clipPathUnits="userSpaceOnUse"
       id="clipPath3735">
      <path
         d="m 5075.94,3677.45 h 860.348 v 732.52 H 5075.94 Z"
         id="path3733" />
    </clipPath>
    <clipPath
       clipPathUnits="userSpaceOnUse"
       id="clipPath3741">
      <path
         d="m 5075.94,3677.45 h 860.35 v 732.52 h -860.35 z"
         id="path3739" />
    </clipPath>
    <clipPath
       clipPathUnits="userSpaceOnUse"
       id="clipPath3745">
      <path
         d="m 5075.94,3677.45 h 860.348 v 732.52 H 5075.94 Z"
         id="path3743" />
    </clipPath>
    <clipPath
       clipPathUnits="userSpaceOnUse"
       id="clipPath3763">
      <path
         d="m 6110.1,3766.98 h 255.008 v 558.059 H 6110.1 Z"
         id="path3761" />
    </clipPath>
    <clipPath
       clipPathUnits="userSpaceOnUse"
       id="clipPath3769">
      <path
         d="m 6110.1,3766.98 h 255.01 v 558.06 H 6110.1 Z"
         id="path3767" />
    </clipPath>
    <clipPath
       clipPathUnits="userSpaceOnUse"
       id="clipPath3773">
      <path
         d="m 6110.1,3766.98 h 255.008 v 558.059 H 6110.1 Z"
         id="path3771" />
    </clipPath>
    <clipPath
       clipPathUnits="userSpaceOnUse"
       id="clipPath3791">
      <path
         d="m 6345.01,4505.14 h 101.109 v 333.32 H 6345.01 Z"
         id="path3789" />
    </clipPath>
    <clipPath
       clipPathUnits="userSpaceOnUse"
       id="clipPath3797">
      <path
         d="m 6345.01,4505.14 h 101.11 v 333.32 h -101.11 z"
         id="path3795" />
    </clipPath>
    <clipPath
       clipPathUnits="userSpaceOnUse"
       id="clipPath3801">
      <path
         d="m 6345.01,4505.14 h 101.109 v 333.32 H 6345.01 Z"
         id="path3799" />
    </clipPath>
    <clipPath
       clipPathUnits="userSpaceOnUse"
       id="clipPath3819">
      <path
         d="m 4567.97,4505.14 h 101.102 v 333.32 H 4567.97 Z"
         id="path3817" />
    </clipPath>
    <clipPath
       clipPathUnits="userSpaceOnUse"
       id="clipPath3825">
      <path
         d="m 4567.97,4505.14 h 101.1 v 333.32 h -101.1 z"
         id="path3823" />
    </clipPath>
    <clipPath
       clipPathUnits="userSpaceOnUse"
       id="clipPath3829">
      <path
         d="m 4567.97,4505.14 h 101.102 v 333.32 H 4567.97 Z"
         id="path3827" />
    </clipPath>
  </defs>
  <sodipodi:namedview
     id="namedview3209"
     pagecolor="#505050"
     bordercolor="#eeeeee"
     borderopacity="1"
     inkscape:showpageshadow="0"
     inkscape:pageopacity="0"
     inkscape:pagecheckerboard="0"
     inkscape:deskcolor="#505050"
     showgrid="false" />
  <g
     id="g3215"
     inkscape:groupmode="layer"
     inkscape:label="Page 1"
     transform="matrix(1.3333333,0,0,-1.3333333,-302.78006,1219.6266)"
     style="display:inline">
    <g
       id="g3217"
       transform="scale(0.1)">
      <path
         d="M 0,0 H 11066.7 V 11066.7 H 0 Z"
         style="display:none;fill:#ffffff;fill-opacity:1;fill-rule:nonzero;stroke:none"
         id="path3219" />
      <path
         d="m 8489.8,5957.89 c -21.21,50.95 -36.18,103.98 -49.8,157.72 -36.57,115.15 -74.84,229.97 -123.34,340.43 -6.36,12.16 -12.86,24.3 -19.52,36.42 -46.16,83.96 -92.75,167.35 -142.5,248.78 -74.76,104.52 -160.18,201.44 -246.16,297.36 -113.12,126.24 -228.77,258.73 -356.52,375.37 -0.41,0.33 -0.8,0.67 -1.21,0.99 -18.29,14.29 -36.37,29.09 -54.43,44.03 -102.66,72.71 -210.14,137.9 -317.34,205.36 -10.23,6.44 -20.43,12.88 -30.64,19.31 -4.46,1.87 -8.86,3.86 -13.36,5.67 h -57.87 c -136.07,84.75 -280.02,150.57 -429.15,199.88 -8.85,17.4 -24.25,32.08 -47.46,40 -352.14,120.15 -710.66,188.9 -1081.73,194.49 -189.95,2.86 -392.81,-26.96 -579.23,-65.32 -176.22,-36.26 -377.11,-80.56 -545.61,-143.42 -165.36,-61.7 -298.95,-141.86 -454.25,-225.63 h -41.77 c -1.46,-10.62 -7.39,-20.78 -19.39,-27.87 -147.56,-87.11 -286.48,-187.62 -415.18,-300.79 -223.18,-196.25 -415.16,-426.31 -574.45,-676.93 -173.84,-273.55 -315.78,-570.03 -389.98,-886.57 -2.43,-10.36 -7.57,-17.72 -14.12,-22.51 -20,-66.73 -38.36,-136.05 -34.27,-205.21 3.44,-58.29 27.89,-112.26 61,-159.55 74.02,-105.69 189.64,-181.01 299.46,-244.71 226.59,-131.39 468.97,-235.1 721.93,-302.94 292.86,-78.53 593.73,-120.83 892.86,-167.46 475.16,-74.04 957.82,-114.17 1432.8,-193.77 2.05,18.65 15.16,35.42 39.43,34.53 245.04,-9.1 490.11,-18.38 735.36,-16.25 465.98,4.04 962.91,34.04 1395.07,224.64 190.98,84.24 371.32,204.99 494.82,376.08 45.39,62.9 81.66,130.13 109.91,200.31 -24.95,218.44 -77.53,427.89 -143.36,637.56"
         style="fill:#bce7f8;fill-opacity:1;fill-rule:nonzero;stroke:none"
         id="path3221" />
      <path
         d="m 6483.24,3412.47 c -11.43,-4.17 -22.86,-8.37 -34.27,-12.59 -314.93,-116.28 -625.4,-247.89 -920.59,-408.32 -196.14,-106.59 -386.47,-226.28 -559.22,-368.12 -109.68,-90.06 -212.01,-189.51 -300.6,-300.55 -30.03,-37.63 -58.37,-76.56 -85.44,-116.38 -10.86,-15.96 -21.49,-32.09 -32.13,-48.21 -15.05,-22.83 -59.29,-55.99 -55.42,-80.03 2.91,-18.09 23.46,-26.57 40.88,-32.26 61.57,-20.07 117.19,-52.92 177.52,-75.34 49.44,-18.37 96.71,-10.18 147.66,-18.95 178.9,-30.8 357.35,-75.01 539.85,-72.99 194.88,2.16 389.06,22.1 582.23,46.67 167.64,21.32 335.96,46.25 495.94,100.67 85.61,29.13 168.16,66.49 250.54,103.77 79.9,36.17 159.8,72.33 239.7,108.49 79.86,36.15 148.04,81.08 222.38,125.76 69.32,41.67 139.71,76.08 204.32,126.58 40.25,31.46 78.41,65.49 116.53,99.51 48.54,43.3 97.08,86.61 145.62,129.91 42.94,38.31 85.96,76.69 125.11,118.85 33.47,36.06 63.97,74.72 94.44,113.34 95.07,120.51 190.32,241.44 272.6,371.22 40.89,64.49 78.11,131.03 110.84,200.04 17.27,36.44 69.08,95.8 49.73,140.74 -31.06,72.1 -177.16,28.01 -234.71,32.63 -81.76,6.56 -163.46,15.17 -245.58,14.84 -76.86,-0.31 -155.68,-0.49 -232.1,-9.53 -60.46,-7.15 -121.57,-30.18 -182.04,-43.17 -138.44,-29.72 -277.05,-59.5 -412.61,-100.38 -147.66,-44.52 -376.3,-93.31 -521.18,-146.2"
         style="fill:#78aa57;fill-opacity:1;fill-rule:nonzero;stroke:none"
         id="path3223" />
      <path
         d="m 8467.65,4608.04 c -137.45,127.74 -334.7,247.01 -479.9,365.5 -179.22,146.23 -376.61,328.35 -555.83,474.6 l -661.65,507.45 -449.56,315.87 -265.31,150.09 -237.77,82.29 h -298.86 l -271.98,-77.45 -261.96,-150.3 -476.44,-310.41 -408.99,-265.02 -380.74,-216.41 -416.87,-158.12 -379.06,-75.88 c 0,0 -313.6,-22.41 -313.61,-22.41 -60.2,-4.29 -123.04,-2.96 -187.97,2.61 -20.57,-140.65 -84.94,-407.52 0,-625.83 81.2,-208.71 79.77,-580.58 206.66,-766.71 l 506.57,204.98 559.3,171.72 883.11,186.44 444.01,61.32 623.54,4.27 780.87,-49.73 735.81,-146.34 c 272.87,-87.62 548.49,-149.66 814.45,-261.11 42.47,-17.8 84.84,-36.3 129.24,-48.53 48.81,-13.47 99.79,-19.25 147.17,-37.09 40.88,-15.41 81.87,-46.38 125.55,-52.77 48.45,-7.11 49.2,24.73 64.97,66.38 35.45,93.59 70.96,187.14 106.45,280.73 14.59,38.48 29.29,77.39 34.75,118.19 19.18,143.38 -20.05,182.54 -115.95,271.67"
         style="fill:#b2bfa6;fill-opacity:1;fill-rule:nonzero;stroke:none"
         id="path3225" />
      <path
         d="m 6654.16,6037.17 332.66,46.53 427.68,116.23 c 0,0 470.71,119.78 470.71,119.78 67.84,3.99 135.67,7.97 203.5,11.95 49.75,2.92 99.49,5.82 149.23,8.75 58.6,3.44 88.69,4.05 119.72,-54.29 37.48,-70.45 75.04,-141.05 105.14,-214.95 59.79,-146.8 89.13,-303.89 118.11,-459.73 24.12,-129.71 48.29,-253.21 55.09,-385.05 6.62,-128.19 7.62,-257.04 -6.12,-384.84 -3.92,-36.44 -9.04,-72.79 -11.1,-109.41 -3.07,-54.44 0.72,-109.37 -6.59,-163.57 -3.8,-28.18 -4.26,-115.14 -49.6,-74 -75.77,68.78 -143.84,141.39 -222.7,206.16 -86.55,71.12 -173.09,142.21 -259.64,213.32 -329.32,270.57 -664.38,534.5 -996.79,801.34"
         style="fill:#adadad;fill-opacity:1;fill-rule:nonzero;stroke:none"
         id="path3227" />
      <path
         d="m 4064.97,6041.75 -412.3,107.96 -384.97,144.93 -339.41,120.2 c -48.95,17.66 -106.74,30.89 -166.55,40.96 -24.31,-55.39 -65.52,-101.8 -94.88,-155.26 -18.62,-33.93 -31.22,-72.13 -44.79,-108.27 -14.42,-38.38 -28.93,-76.68 -44.01,-114.81 -10.6,-26.76 -21.02,-53.62 -31.35,-80.5 0.03,-2 -0.07,-4.03 -0.44,-6.05 -9.36,-51.91 -24.97,-102.25 -41.97,-152.09 -14.37,-42.11 -29.59,-83.96 -42.11,-126.66 -13.5,-46.03 -21.4,-93.07 -30.75,-140.03 -9.58,-48.13 -19.63,-96.24 -28.04,-144.59 10.46,-62.43 23.91,-124.31 32.82,-187.18 l 172.91,-12.52 557.14,58.75 456.51,161.29 476.62,252.78 408.99,265.02"
         style="fill:#adadad;fill-opacity:1;fill-rule:nonzero;stroke:none"
         id="path3229" />
      <path
         d="m 3170.33,5300.17 c -48.02,-11.94 -97.08,-24.81 -137.16,-53.73 -7.99,-5.77 -16.16,-13.22 -16.97,-23.04 -0.87,-10.41 6.8,-19.41 14.25,-26.74 177.13,-174.19 483.1,-104.3 684.88,-9.71 154.55,72.44 296.65,187.64 466.83,200.68 126.72,9.69 250.58,-39.61 377.5,-46.42 102.39,-5.49 212.01,12.4 294.28,71.53 78.14,56.16 146.67,101.01 248.93,88.87 59.88,-7.11 116.27,-32.23 175.75,-42.13 96.61,-16.09 196.18,9.02 284.96,50.37 88.78,41.35 169.11,98.44 251.81,150.91 45.91,29.13 94.55,57.56 148.58,63.71 116.52,13.25 216.92,-77.74 329.56,-110.36 85.65,-24.81 182.56,-13.57 256.46,36.33 73.89,49.9 121.3,139.36 114.2,228.24 -20.27,253.84 -400.52,440.15 -601.52,525.41 -169.29,71.79 -353.89,124.6 -535.8,97.66 -92.06,-13.62 -179.84,-47.19 -266.38,-81.41 -253.2,-100.13 -490.65,-213.28 -694.43,-396.71 -196.59,-174.75 -416.86,-318.24 -649.93,-439.46 -116.75,-60.73 -244.55,-105.2 -358.76,-169.59 -113.8,-64.14 -256.32,-81.95 -383.63,-113.56"
         style="fill:#e8e8e8;fill-opacity:1;fill-rule:nonzero;stroke:none"
         id="path3231" />
      <path
         d="m 8540.74,5762.89 c -13.21,56.08 -26.64,112.11 -41.02,167.9 -12.94,50.23 -27.54,98.97 -48.49,146.51 -37.49,85.12 -84.46,167.25 -109.82,257.11 -216.88,36.96 -442.43,22.29 -652.82,-42 -39.11,-11.95 -156.37,-35.33 -180.97,-70.41 -28.7,-40.93 21.67,-93.39 50.08,-125.1 78.02,-87.11 192.86,-142.22 310.31,-142.97 62.16,-0.42 123.8,13.05 185.95,12.38 123.04,-1.35 243.29,-60.87 322.61,-154.94 40.26,-47.76 70.47,-103.67 113.62,-148.82 24.54,-25.7 55.24,-47.87 88.4,-59.88 -12.8,53.35 -25.27,106.8 -37.85,160.22"
         style="fill:#e8e8e8;fill-opacity:1;fill-rule:nonzero;stroke:none"
         id="path3233" />
      <path
         d="m 7762.43,4104.66 c -14.71,4.12 -29.4,8.3 -43.98,12.87 -37.26,11.64 -73.72,25.62 -110.16,39.59 -74.08,28.4 -150.54,70.07 -230.38,72.75 -83.8,2.81 -171.55,34.86 -254.83,48.26 -67.54,10.87 -134.67,26.78 -201.76,40.12 -165.37,32.88 -330.74,65.78 -496.11,98.66 l -594.49,54.11 -891.78,-20.89 -775.82,-115.76 -540.27,-134.86 c 0,0 -517.72,-172.63 -517.73,-172.63 -30.19,-12.56 -60.37,-25.13 -90.55,-37.69 -126.65,-52.71 -250.36,-118.32 -380.9,-165.32 56.96,-186.35 144.07,-363.44 256.91,-522.32 45.47,-64 95.02,-125 144.54,-185.94 70.62,-86.92 141.3,-173.91 217.72,-255.77 166.92,-178.82 360.07,-331.83 564.36,-466.38 106.39,-70.08 216.16,-135.35 330.67,-191.33 57.92,-28.33 117.04,-54.25 177.34,-77.08 31,-11.73 62.31,-22.66 93.91,-32.66 19.11,-6.05 56.85,-30.85 75.6,-16.54 9.3,7.11 13.76,18.68 18.12,29.54 68.25,170.1 210.65,297.52 348.35,418.46 185.85,163.22 380.29,305.86 592.05,431.26 88.65,52.51 179.38,101.47 271.69,147.26 184.83,91.66 375.91,170.34 570.24,239.48 386.9,137.65 786.01,237.44 1186.13,328.14 259.18,58.75 527.9,87.6 789.28,23.9 20.14,-4.91 42.62,-10 60.58,0.34 13.26,7.65 20.85,22.06 27.76,35.72 20.57,40.69 41.05,90.31 17.82,129.53 -24.84,41.94 -88.73,50.39 -127.31,75.32 -61.34,39.65 -130.64,33.71 -194.11,61.86 -78.19,34.67 -157.06,68.16 -239.11,92.71 -17.85,5.34 -35.84,10.26 -53.78,15.29"
         style="fill:#a5ba4a;fill-opacity:1;fill-rule:nonzero;stroke:none"
         id="path3235" />
      <g
         id="g3237">
        <g
           id="g3239"
           clip-path="url(#clipPath3243)">
          <g
             id="g3245" />
          <g
             id="g3263">
            <g
               clip-path="url(#clipPath3249)"
               opacity="0.149994"
               id="g3261">
              <g
                 id="g3259">
                <g
                   clip-path="url(#clipPath3253)"
                   id="g3257">
                  <path
                     d="m 2822.18,6200.96 c 24.18,-60.26 48.32,-128.96 21.18,-187.94 -38.01,-82.61 -157.93,-103.88 -191.67,-188.31 -16.58,-41.5 -7.74,-88.3 -11.91,-132.78 -6.41,-68.45 -46.12,-132.97 -104.3,-169.55 -17.52,-11.02 -39.1,-19.76 -58.55,-12.68 -34.63,12.6 -35.35,60.73 -29.4,97.1 21.13,129.25 57.83,255.4 99.42,379.36 40.08,119.5 75.15,246.34 147.46,350.84 4.09,5.93 8.99,12.25 16.07,13.54 5.46,1 10.95,-1.29 15.88,-3.86 54.31,-28.11 74.48,-92.56 95.82,-145.72"
                     style="fill:#ffffff;fill-opacity:1;fill-rule:nonzero;stroke:none"
                     id="path3255" />
                </g>
              </g>
            </g>
          </g>
        </g>
      </g>
      <g
         id="g3265">
        <g
           id="g3267"
           clip-path="url(#clipPath3271)">
          <g
             id="g3273" />
          <g
             id="g3291">
            <g
               clip-path="url(#clipPath3277)"
               opacity="0.199997"
               id="g3289">
              <g
                 id="g3287">
                <g
                   clip-path="url(#clipPath3281)"
                   id="g3285">
                  <path
                     d="m 4096.68,6048.55 c -223.25,29.98 -440.34,93.05 -652.9,166.11 -164.44,56.53 -318.35,142.75 -478.23,206.04 -49.37,19.54 -132.39,39.96 -216.43,51.81 -7.82,-23.32 -20.14,-44.73 -34.65,-64.98 33.61,-7.6 60.96,-14.61 73.7,-18.51 101.29,-30.99 201.81,-64.91 299.68,-105.55 160.44,-66.63 414.59,-166.11 481.42,-343.18 28.23,-74.8 -1.93,-160.33 -49.95,-224.25 -77.24,-102.83 -176.65,-137.77 -294.25,-172.25 -148.37,-43.47 -300.3,-73.64 -453.73,-90.87 -116.35,-13.06 -241.96,-5.24 -357.62,13.28 -6.33,1.01 -14.03,1.55 -17.88,-3.58 -2.06,-2.74 -2.33,-6.38 -2.52,-9.81 -3.76,-69.8 -1.33,-139.92 7.27,-209.29 1.2,-9.69 2.98,-20.26 10.36,-26.67 6.92,-6.01 16.86,-6.65 26.02,-6.96 180.06,-6.11 375.46,37.44 554.88,63.59 210.85,30.74 420.68,76.71 618.58,157.19 237.77,96.7 452.92,240.54 666.2,383.36 69.34,46.43 183.36,76.6 199.34,170.64 -112.3,51.37 -257.86,47.57 -379.29,63.88"
                     style="fill:#414141;fill-opacity:1;fill-rule:nonzero;stroke:none"
                     id="path3283" />
                </g>
              </g>
            </g>
          </g>
        </g>
      </g>
      <g
         id="g3293">
        <g
           id="g3295"
           clip-path="url(#clipPath3299)">
          <g
             id="g3301" />
          <g
             id="g3319">
            <g
               clip-path="url(#clipPath3305)"
               opacity="0.149994"
               id="g3317">
              <g
                 id="g3315">
                <g
                   clip-path="url(#clipPath3309)"
                   id="g3313">
                  <path
                     d="m 8584.09,4970.55 c 6.17,-2.55 12.36,-5.05 18.56,-7.53 6.99,-2.79 14.47,-5.93 18.4,-12.34 3.42,-5.57 3.44,-12.5 3.36,-19.04 -0.92,-78.37 12.48,-153.93 9.64,-233.39 -1.48,-41.39 -4.47,-83 -12.13,-123.77 -1.8,-9.59 -33.59,-103.32 -33.44,-103.46 -246.81,256.34 -736.85,609.73 -994.99,851.37 -150.91,141.25 -311.64,271.91 -479.19,392.9 -62.26,44.96 -127.96,72.12 -191.7,111.41 -82.61,50.91 -138.77,143.78 -211.37,207.16 49.97,-43.61 247.66,51.73 297.98,65.93 129.3,36.48 258.6,72.98 387.9,109.46 309.41,87.32 636.96,175 947.79,92.91 -199.62,-0.55 -398.46,-68.84 -556.29,-191.07 -52.89,-40.95 -99.12,-93.5 -120.8,-157.71 -20.42,-60.49 -5.85,-109.38 9.55,-169.01 36.37,-140.87 132.44,-258.89 233.3,-359.85 192.59,-192.77 421.51,-350.23 673.43,-453.97"
                     style="fill:#101500;fill-opacity:1;fill-rule:nonzero;stroke:none"
                     id="path3311" />
                </g>
              </g>
            </g>
          </g>
        </g>
      </g>
      <g
         id="g3321">
        <g
           id="g3323"
           clip-path="url(#clipPath3327)">
          <g
             id="g3329" />
          <g
             id="g3347">
            <g
               clip-path="url(#clipPath3333)"
               opacity="0.199997"
               id="g3345">
              <g
                 id="g3343">
                <g
                   clip-path="url(#clipPath3337)"
                   id="g3341">
                  <path
                     d="m 8588.33,4454.7 c 0.33,1.98 -77.08,39.09 -105.21,105.23 -71.13,57.46 -190.27,159.96 -260.58,218.39 -149.76,124.48 -283.23,226.77 -429.19,355.68 -65.88,58.19 -167.2,145.02 -238.77,195.52 -71.41,50.37 -167.59,150.19 -239.17,200.28 -249.35,174.52 -375.99,304.75 -623.97,481.18 -137.66,97.93 -301.02,213.79 -441.24,308.16 -128.56,86.52 -271.07,195.57 -434.47,162 277.82,-158.1 535.37,-351.78 764.37,-574.82 110.16,-107.28 215.12,-223.32 283.71,-360.96 128.5,-257.88 55.92,-570.4 -213.76,-706.08 -143.47,-72.19 -311.37,-81.69 -470.72,-61.73 -159.36,19.97 -313.72,67.57 -469.96,104.77 -434.23,103.39 -887.46,126.41 -1329.94,67.57 -17.22,-2.3 -34.56,-4.75 -51.85,-7.62 -71.33,-11.84 -141.84,-30.52 -200.24,-72.08 -53.8,-38.3 -93.22,-93.23 -141.96,-137.8 -174.93,-159.95 -407.62,-132.59 -616.85,-202.25 -207.49,-69.09 -355.43,-254.5 -569.17,-310.05 -90.93,-23.63 -186.38,-20.55 -280.27,-17.29 -6.62,-136.62 42.55,-246.57 107.09,-365.07 4.05,-7.44 8.6,-15.36 16.29,-18.96 8.49,-3.97 18.47,-1.59 27.46,1.07 68.91,20.46 133.16,53.75 198.5,83.71 188.86,86.57 388.84,145.91 588.03,204.95 111.21,32.96 222.41,65.91 333.61,98.88 94.21,27.92 188.5,55.85 284.41,77.23 102.77,22.89 207.05,38.17 311.23,53.41 295.98,43.3 594.37,108.82 892.73,113.03 78.69,1.09 152.66,13.56 230.97,15.34 588.09,13.4 1177.93,-52.37 1748.6,-195.09 62.55,-15.64 122.39,-46.66 184.5,-59.96 57.54,-12.32 113.53,-23.14 170.37,-41.13 128.34,-40.6 253.61,-90.94 374.33,-150.51 35.52,-17.52 395.29,-163.15 430.25,-181.79 106.28,237.45 131.39,380.27 170.87,616.79"
                     style="fill:#414141;fill-opacity:1;fill-rule:nonzero;stroke:none"
                     id="path3339" />
                </g>
              </g>
            </g>
          </g>
        </g>
      </g>
      <g
         id="g3349">
        <g
           id="g3351"
           clip-path="url(#clipPath3355)">
          <g
             id="g3357" />
          <g
             id="g3375">
            <g
               clip-path="url(#clipPath3361)"
               opacity="0.149994"
               id="g3373">
              <g
                 id="g3371">
                <g
                   clip-path="url(#clipPath3365)"
                   id="g3369">
                  <path
                     d="m 7921.98,4022.02 c -85.71,33.27 -172.16,64.64 -259.26,94.09 -272.16,92.03 -550.61,165.36 -832.7,219.78 -272.77,52.62 -548.97,68.11 -821.25,111.34 -576.78,91.59 -1168.62,45.65 -1737.07,-77.69 -340.05,-73.77 -673.57,-175.07 -1001.43,-291.09 -106.7,-35.57 -207.49,-70.29 -307.32,-119.16 -26.68,-13.07 -340.31,-127.9 -335.69,-138.14 29.85,-66 37.77,-143.45 82.17,-200.69 24.63,37.91 93.18,78.89 131.53,102.82 359.41,224.17 785,377.84 1213.71,332.85 54.39,-5.71 121.26,-28.57 125.66,-83.08 2.93,-36.12 -25.14,-67.12 -54.29,-88.65 -74.35,-54.88 -168.52,-81.54 -234.68,-146.05 -12.4,-12.09 -24.01,-26.09 -27.85,-42.97 -10.32,-45.31 37.42,-81.84 80.73,-98.68 147.22,-57.23 311.07,-41.76 468.76,-32.5 182.77,10.72 366.1,11.9 548.99,3.53 32.05,-1.46 65.18,-3.5 93.73,-18.13 28.55,-14.63 51.42,-45.36 46.65,-77.08 -3.45,-22.93 -20.06,-41.55 -37.41,-56.94 -72.97,-64.68 -183.61,-121.17 -174.7,-218.27 7.87,-85.69 108.67,-129.05 194.55,-134.7 164.36,-10.83 324.2,48.27 479.84,102.22 326.82,113.28 659.83,207.5 993.83,296.99 68.31,18.31 135.19,42.66 204.74,56.14 51.18,9.91 101.53,10.58 149.73,32.34 112.1,50.62 258.99,61.43 380.42,84.32 275.07,51.83 521.36,78.77 800.39,83.38 91.76,1.52 190.51,0.99 265.39,-52.05 13.02,53.39 26.04,106.8 39.06,160.21 -158.17,70.14 -315.62,133.52 -476.23,195.86"
                     style="fill:#414141;fill-opacity:1;fill-rule:nonzero;stroke:none"
                     id="path3367" />
                </g>
              </g>
            </g>
          </g>
        </g>
      </g>
      <path
         d="m 2759.91,6468.41 c 301.03,-40.04 551.03,-190.04 831.03,-290.04 300,-120 620,-180 944.9,-192.25"
         style="fill:none;stroke:#414141;stroke-width:65.92;stroke-linecap:butt;stroke-linejoin:miter;stroke-miterlimit:10;stroke-dasharray:none;stroke-opacity:1"
         id="path3377" />
      <path
         d="m 2400.59,5243.52 c 452.05,-20.04 822.23,8.81 1271.98,218.66 223.48,104.28 430.93,239.47 637.5,374.16 204.54,133.38 409.07,266.75 613.63,400.13 198.3,129.3 406.99,262.36 642.69,284.35 365.78,34.15 694.39,-202.48 994.3,-414.63 479.81,-339.43 1577.77,-1254.42 2027.8,-1635.18"
         style="fill:none;stroke:#414141;stroke-width:65.92;stroke-linecap:butt;stroke-linejoin:miter;stroke-miterlimit:10;stroke-dasharray:none;stroke-opacity:1"
         id="path3379" />
      <path
         d="m 6654.16,6039.61 c 449.61,13.48 859.5,231.32 1301.11,291.47 125.48,17.09 253.18,20.02 378.67,1.35"
         style="fill:none;stroke:#414141;stroke-width:65.92;stroke-linecap:butt;stroke-linejoin:miter;stroke-miterlimit:10;stroke-dasharray:none;stroke-opacity:1"
         id="path3381" />
      <path
         d="m 2627.81,3818.82 c 0,0 2855.55,1430.57 5789.64,19.1"
         style="fill:none;stroke:#414141;stroke-width:65.92;stroke-linecap:butt;stroke-linejoin:miter;stroke-miterlimit:10;stroke-dasharray:none;stroke-opacity:1"
         id="path3383" />
      <g
         id="g3385">
        <g
           id="g3387"
           clip-path="url(#clipPath3391)">
          <g
             id="g3393" />
          <g
             id="g3411">
            <g
               clip-path="url(#clipPath3397)"
               opacity="0.149994"
               id="g3409">
              <g
                 id="g3407">
                <g
                   clip-path="url(#clipPath3401)"
                   id="g3405">
                  <path
                     d="m 6694.24,3329.38 c 491.82,123.87 971.68,124.74 1472.21,42.78 9.78,-1.6 20.35,-3.15 29.21,1.32 9.34,4.71 14.38,14.86 18.79,24.36 37.6,81.03 75.21,162.08 112.82,243.11 4.86,10.47 9.82,22.13 6.5,33.18 -4.75,15.79 -23.39,22.02 -39.52,25.49 -178.17,38.36 -363.24,23.03 -544.12,0.59 -604.75,-75.06 -1201.16,-230.3 -1760.33,-473.77 -281.01,-122.35 -552.42,-267.09 -809.09,-434.72 -23.33,-15.25 -135.97,-70.88 -120.38,-99.84 15.89,-29.5 -21.11,-7.32 0,0 146.87,50.98 427.66,197.14 570.81,260.36 336.38,148.58 706.5,287.34 1063.1,377.14"
                     style="fill:#ffffff;fill-opacity:1;fill-rule:nonzero;stroke:none"
                     id="path3403" />
                </g>
              </g>
            </g>
          </g>
        </g>
      </g>
      <path
         d="m 4475.97,2056.97 c 231.91,414.05 656.89,722.62 1055.24,926.31 203.56,104.09 407.48,207.84 619.18,294.04 207.91,84.67 420.09,158.83 635.05,223.51 199.94,60.16 402.37,112.19 606.66,155.37 176.61,37.32 632.92,95.42 954.66,19.26"
         style="fill:none;stroke:#414141;stroke-width:65.92;stroke-linecap:butt;stroke-linejoin:miter;stroke-miterlimit:10;stroke-dasharray:none;stroke-opacity:1"
         id="path3413" />
      <g
         id="g3415">
        <g
           id="g3417"
           clip-path="url(#clipPath3421)">
          <g
             id="g3423" />
          <g
             id="g3441">
            <g
               clip-path="url(#clipPath3427)"
               opacity="0.679993"
               id="g3439">
              <g
                 id="g3437">
                <g
                   clip-path="url(#clipPath3431)"
                   id="g3435">
                  <path
                     d="m 6198.42,6687.13 c 97.72,2.49 164.85,91.72 257.83,67.51 15.93,-4.13 31.58,-12.1 47.97,-10.12 13.35,1.62 22.39,9.43 29.93,16.85 31.71,31.21 58.16,65.15 95.68,93.23 37.52,28.09 89.26,50.36 146.9,49.68 57.63,-0.69 118.36,-30.82 122.52,-69.53 44.91,44.92 165.84,38.21 206.3,-11.46 61.87,31.32 134.93,64.31 213.06,51.89 33.73,-5.36 65.21,-19.04 99.52,-19.92 124.09,-3.17 243.43,16.58 366.22,-16.87 13.23,-3.59 29.39,-12.43 26.69,-25.88 -1.36,-6.8 -7.37,-11.53 -13.07,-15.46 -110.58,-76 -252.81,-78.37 -379.61,-105.96 -280.42,-61.04 -580.8,-76.43 -878,-91.42 -64.94,-3.28 -130.19,-6.54 -195.62,-3.03 -101.64,5.48 -200.8,27.18 -298.81,48.7 -37.04,8.14 -76.88,17.62 -99.68,39.16 0,0 -16.36,-4.22 252.17,2.63"
                     style="fill:#f8f9fa;fill-opacity:1;fill-rule:nonzero;stroke:none"
                     id="path3433" />
                </g>
              </g>
            </g>
          </g>
        </g>
      </g>
      <g
         id="g3443">
        <g
           id="g3445"
           clip-path="url(#clipPath3449)">
          <g
             id="g3451" />
          <g
             id="g3469">
            <g
               clip-path="url(#clipPath3455)"
               opacity="0.679993"
               id="g3467">
              <g
                 id="g3465">
                <g
                   clip-path="url(#clipPath3459)"
                   id="g3463">
                  <path
                     d="m 6397.76,7513.88 c -43,6.33 -84.03,13.98 -127.72,32.75 -50.46,21.67 -106.67,52.42 -161.01,23.78 -15.7,-8.28 -30.1,-21.89 -47.85,-21.57 -14.47,0.25 -26.02,9.87 -35.87,19.2 -41.45,39.21 -78.07,83.09 -124.83,116.98 -46.75,33.91 -106.96,57.5 -167.44,47.75 -60.48,-9.75 -116.58,-61.48 -110.93,-116.73 -58.9,56.55 -184.42,28.69 -214.14,-47.52 -73.22,34.77 -158.63,70.19 -237.64,40.8 -34.11,-12.69 -63.69,-36.77 -99.56,-43.21 -22.04,-3.98 -44.41,-0.86 -66.58,0.37 -46.73,2.61 -93.89,-3.18 -140.68,-8.96 -166.67,-17.54 -334.82,-33.61 -500.08,-52.05 -8.65,-0.95 -18.32,-2.49 -23.52,-9.47 -5.53,-7.43 -3.44,-18.46 2.3,-25.73 5.74,-7.27 14.28,-11.66 22.56,-15.82 155.37,-78.29 319.11,-67.13 488.34,-82.77 87.52,-7.77 173.19,-25.11 259.92,-37.23 237.01,-33.16 477.36,-27.02 715.55,-12.07 221.02,13.85 425.17,4.85 639.68,82.32 15.09,5.46 30.5,11.41 42.26,22.32 11.76,10.91 19.18,28 14.27,43.28 -7.18,22.34 -34.57,29.61 -57.73,33.4 -24.06,3.96 -46.95,6.89 -69.3,10.18"
                     style="fill:#f8f9fa;fill-opacity:1;fill-rule:nonzero;stroke:none"
                     id="path3461" />
                </g>
              </g>
            </g>
          </g>
        </g>
      </g>
      <g
         id="g3471">
        <g
           id="g3473"
           clip-path="url(#clipPath3477)">
          <g
             id="g3479" />
          <g
             id="g3497">
            <g
               clip-path="url(#clipPath3483)"
               opacity="0.679993"
               id="g3495">
              <g
                 id="g3493">
                <g
                   clip-path="url(#clipPath3487)"
                   id="g3491">
                  <path
                     d="m 3335.89,6779.39 c 30.25,-6.35 60.51,-12.7 90.77,-19.04 21.71,-4.56 42.36,-12.32 63.14,-2.22 20.77,10.1 36.09,31.78 56.13,43.63 48.46,28.64 120.15,2.42 138.68,-50.73 64.95,83.65 221.16,60.02 258.45,-39.09 40.27,32.24 81.95,65.22 131.54,79.42 49.58,14.2 109.6,4.97 141.26,-35.74 22.87,-29.4 29.59,-72.29 61.2,-92 36.95,-23.05 88.27,-1.8 127.33,-21.07 19.98,-9.86 26.39,-41.28 48.26,-45.52 296.03,-57.59 218.41,-115.6 218.41,-115.6 -14.53,-1.28 -29.07,-2.37 -43.63,-3.28 -353.08,-22 -684.62,84.07 -1023.61,159 -54.7,12.09 -110.54,23.95 -163.7,41.61 -46.08,15.31 -93.4,26.32 -139.49,41.67 -15.66,5.22 -92.46,20.21 -66.99,51.77 26.06,32.28 69.2,14.12 102.25,7.19"
                     style="fill:#f8f9fa;fill-opacity:1;fill-rule:nonzero;stroke:none"
                     id="path3489" />
                </g>
              </g>
            </g>
          </g>
        </g>
      </g>
      <path
         d="m 6636.66,4807.49 c -35.32,-7.01 -67.87,-24.46 -95,-47.91 -14.66,-12.68 -45.34,-54.9 -67.96,-49.03 -8.65,2.23 -13.33,11.41 -16.4,19.8 -17.16,46.9 -16.85,99.96 0.86,146.65 12.59,33.14 33.43,62.93 41.86,97.66 8.53,35.06 13.64,71.99 17.66,107.86 8.61,77.21 7.46,155.49 -3.29,232.43 -8.21,58.65 -21.98,116.54 -41.28,172.54 -8.29,24.05 -21.22,44.99 -24.34,70.28 -3.63,29.7 -1.61,60 2.96,89.49 9.52,61.41 28.25,122.77 21.16,184.52 -10.43,90.68 -78.32,168.92 -162.14,205.07 -83.82,36.17 -180.7,33.94 -268.21,7.97 -75.13,-22.3 -149.72,-66.53 -180.25,-138.72 -1.56,-3.66 -3.2,-7.64 -6.63,-9.66 -2.93,-1.75 -6.57,-1.67 -10,-1.52 -194.18,7.97 -388.09,6.03 -582.43,5.35 -21.35,-0.07 -43.3,-0.05 -63.27,7.57 -31.12,11.87 -52.46,39.97 -75.66,63.88 -81.82,84.3 -207.71,125 -322.37,99.41 -114.64,-25.57 -212.8,-118.74 -239.41,-233.16 -16.38,-70.41 -6.88,-143.89 -8.97,-216.14 -3.02,-104.33 -30.28,-206.22 -47.53,-309.15 -17.25,-102.94 -24.04,-211.43 12.44,-309.22 13.68,-36.68 33.18,-71.06 45.56,-108.21 14.59,-43.77 15.57,-97.37 14.48,-143.64 -0.12,-5.16 -14.68,-73.98 -14.57,-74.12 -0.47,0.54 -65.73,74.55 -65.73,74.55 l -67.7,46.84 c 0,0 -45.7,17.52 -50.48,18.65 -4.77,1.13 -61.64,-6.66 -66.64,-6.66 -5,0 -45.06,-16.25 -45.06,-16.25 l -59.89,-35.03 -55.23,-82.1 c 0,0 13.93,-142.87 16.43,-150.37 12.94,-38.82 8.55,-81.92 26.26,-119.57 21.59,-45.95 42.11,-93.49 61.57,-140.46 18.11,-43.71 41.66,-87.03 64.95,-128.42 25.98,-46.16 57.27,-88.31 86.02,-132.24 24.8,-37.89 58,-67.12 87.45,-101.23 14.51,-16.81 30.73,-33.83 45.03,-50.55 7.46,-8.72 14.36,-15.64 2.43,-22.29 -9.27,-5.17 -23.11,-3.99 -33.66,-3.99 -20.88,0 -40.55,1.99 -57.8,-9.69 -15.25,-10.33 -27.81,-29.95 -13.22,-48.78 6.66,-8.61 17.25,-8.68 24.43,-15.62 8.7,-8.39 1.45,-13.14 -2.52,-23.38 -6.59,-17.01 -6.87,-46.8 10.31,-57.8 17.44,-11.18 48.19,3.42 63.75,13.72 18.8,12.43 32.65,23.13 54.96,31.21 29.18,10.55 58.21,9.51 88.12,14.87 23.83,4.28 50.42,6.55 66.92,26.45 7.37,8.88 3.33,16.69 8.75,26.24 5.01,8.85 17.92,12.5 27.46,14.06 23.43,3.83 36.71,-4.77 56.91,-15.37 27.95,-14.66 62.89,-16.17 86.91,-38.33 21.93,-20.25 34.07,-49.8 46.57,-76.26 16.95,-35.95 35.82,-74.09 58.4,-106.99 9.99,-14.57 21.01,-29.36 33.41,-40.92 14.98,-14 36.78,-9.64 51.53,3.09 8.43,7.29 9.45,18.11 21,18.56 8.61,0.34 20.77,-8.29 29.06,-10.06 18.16,-3.87 46,-5.62 60.08,9.66 9.7,10.5 3.7,23.51 -7.41,29.3 -4.84,15.99 25.29,16.22 35.11,21.98 15,8.8 19.29,28.64 6.16,41.84 -12.98,13.04 -35,10.34 -49.18,22.02 -13.43,11.08 -19.14,30.06 2.36,35.98 16.23,4.48 35.79,5.24 52.88,4.64 35.05,-1.25 68.08,-10.41 103.42,-11.67 65.91,-2.34 133.11,-1.42 198.58,1.58 90.05,4.12 179.33,6.45 269.75,15.5 9.89,0.99 39.05,5.94 38.41,-12.08 -0.47,-13 -32.16,-24.09 -41.91,-27.87 -14.29,-5.53 -29.04,-8.92 -43.58,-14.17 -9.62,-3.48 -32.37,-8.73 -37.68,-16.61 -18.44,-27.33 34.81,-38.5 49.45,-41.64 -4.23,-7.32 -16.69,-9.1 -21.11,-18.05 -14.84,-30.02 38.49,-54.02 61.56,-50.92 15.23,2.04 26.3,19.62 40.89,20.51 18.23,1.12 10.29,-13.17 23.45,-19.93 29.66,-15.24 57.5,-11.16 77.14,18.63 14.48,21.93 31,42.94 43.29,66.72 10.53,20.39 20.42,41.12 29.28,62.3 8.05,19.29 13.09,40.73 26.27,57.35 5.53,6.96 11.78,11.59 19.04,17.16 15.71,12.05 29.07,20.47 47.49,27.77 29.65,11.76 65.26,24.37 89.68,46.15 5.11,-11.41 -0.35,-26.4 1.54,-38.65 1.39,-8.89 6.14,-20.47 11.32,-27.53 13.55,-18.52 38.11,-23.48 60.25,-23.72 22.36,-0.26 42.41,8.85 64.72,7.5 22.55,-1.37 38.28,-13.3 56.32,-25.97 16.17,-11.36 33.21,-18.69 52.43,-21.56 17.58,-2.63 57.51,-9.62 72.58,3.44 6.24,5.4 9.86,18.55 8.67,26.59 -1.34,8.94 -15.95,17.43 -15.06,25 1.11,9.45 21.16,10.58 26.36,17.44 6.8,8.95 3.73,21.04 -0.02,30.06 -7.27,17.52 -17.02,23.49 -35.09,26.18 -13.23,1.97 -31.5,-1.96 -42.7,5.11 -22.03,13.92 0.9,45.86 12.26,63.66 8.89,13.96 19.51,26.71 29.71,40.05 16.48,21.56 32.89,40.34 47,63.24 18.32,29.77 44.07,53.94 66.3,81.35 25.24,31.15 48.04,62.8 68.82,96.79 32.81,53.65 55.81,109.99 76.59,169.92 10.31,29.73 21.82,58.63 32.5,87.44 24.13,65.08 28.95,134.6 18.74,203.01 -8.06,53.87 -20.77,111 -61.74,149.59 -39.66,37.34 -101.3,39.27 -152.89,29.03"
         style="fill:#80b75c;fill-opacity:1;fill-rule:nonzero;stroke:none"
         id="path3501" />
      <g
         id="g3503">
        <g
           id="g3505"
           clip-path="url(#clipPath3509)">
          <g
             id="g3511" />
          <g
             id="g3529">
            <g
               clip-path="url(#clipPath3515)"
               opacity="0.199997"
               id="g3527">
              <g
                 id="g3525">
                <g
                   clip-path="url(#clipPath3519)"
                   id="g3523">
                  <path
                     d="m 6348.44,4498.37 c 75,65 202.5,257.5 327.5,182.5 125,-77.5 72.5,-290 15,-390 -67.5,-117.5 -135,-230 -222.5,-332.5 -47.5,-57.5 -95,-102.5 -42.5,-167.5 25,-30 17.5,-62.5 40,-90 20,-22.5 75,-42.5 97.5,-20 10,10 10,32.5 10,45 0,7.5 -12.5,15 -12.5,22.5 2.5,10 15,17.5 15,25 5,47.5 -20,35 -55,62.5 -72.5,52.5 52.5,110 92.5,150 95,100 147.5,250 202.5,372.5 55,125 70,272.5 -7.5,395 -40,62.5 -127.5,60 -195,55 -75,-5 -112.5,-65 -150,-125 -27.5,-45 -85,-105 -95,-155"
                     style="fill:#ffffff;fill-opacity:1;fill-rule:nonzero;stroke:none"
                     id="path3521" />
                </g>
              </g>
            </g>
          </g>
        </g>
      </g>
      <g
         id="g3531">
        <g
           id="g3533"
           clip-path="url(#clipPath3537)">
          <g
             id="g3539" />
          <g
             id="g3557">
            <g
               clip-path="url(#clipPath3543)"
               opacity="0.199997"
               id="g3555">
              <g
                 id="g3553">
                <g
                   clip-path="url(#clipPath3547)"
                   id="g3551">
                  <path
                     d="m 4674.08,4498.37 c -75,65 -202.5,257.5 -327.5,182.5 -125,-77.5 -72.5,-290 -15,-390 67.5,-117.5 135,-230 222.5,-332.5 47.5,-57.5 95,-102.5 42.5,-167.5 -25,-30 -17.5,-62.5 -40,-90 -20,-22.5 -75,-42.5 -97.5,-20 -10,10 -10,32.5 -10,45 0,7.5 12.5,15 12.5,22.5 -2.5,10 -15,17.5 -15,25 -5,47.5 20,35 55,62.5 72.5,52.5 -52.5,110 -92.5,150 -95,100 -147.5,250 -202.5,372.5 -55,125 -70,272.5 7.5,395 40,62.5 127.5,60 195,55 75,-5 112.5,-65 150,-125 27.5,-45 85,-105 95,-155"
                     style="fill:#ffffff;fill-opacity:1;fill-rule:nonzero;stroke:none"
                     id="path3549" />
                </g>
              </g>
            </g>
          </g>
        </g>
      </g>
      <g
         id="g3559">
        <g
           id="g3561"
           clip-path="url(#clipPath3565)">
          <g
             id="g3567" />
          <g
             id="g3585">
            <g
               clip-path="url(#clipPath3571)"
               opacity="0.199997"
               id="g3583">
              <g
                 id="g3581">
                <g
                   clip-path="url(#clipPath3575)"
                   id="g3579">
                  <path
                     d="m 5932.6,4400.03 c 10,-43.33 26.67,-85 35,-130 10,-46.67 13.33,-96.67 20,-143.33 11.67,-91.67 15,-191.67 -5,-281.67 -15,-61.67 -36.67,-116.67 -65,-171.67 -6.67,-11.66 -21.67,-33.33 -10,-45 5,-5 18.33,1.67 25,-1.66 11.67,-8.34 1.67,-10 8.33,-21.67 6.67,-10 -5,-11.67 8.34,-16.67 5,-3.33 18.33,3.34 23.33,6.67 16.67,6.67 25,16.67 36.67,30 20,-66.67 -110,-156.67 -115,-63.33 -25,-8.34 -40,-26.67 -70,-25 -20,1.66 -58.34,26.66 -25,45 -11.67,18.33 -50,16.66 -50,43.33 0,28.33 38.33,31.67 60,35 50,8.33 80,28.33 98.33,78.33 31.48,85.87 29.92,177.82 36.26,267.82 2.65,37.5 0.71,66.19 -7.45,102.22 -9.89,43.69 -5.48,90.38 -5.48,134.91 0,46.09 -9.77,93.36 -7.12,137.17 16.67,0.18 20.46,-20.86 19.62,-34.61"
                     style="fill:#ffffff;fill-opacity:1;fill-rule:nonzero;stroke:none"
                     id="path3577" />
                </g>
              </g>
            </g>
          </g>
        </g>
      </g>
      <g
         id="g3587">
        <g
           id="g3589"
           clip-path="url(#clipPath3593)">
          <g
             id="g3595" />
          <g
             id="g3613">
            <g
               clip-path="url(#clipPath3599)"
               opacity="0.199997"
               id="g3611">
              <g
                 id="g3609">
                <g
                   clip-path="url(#clipPath3603)"
                   id="g3607">
                  <path
                     d="m 5080.57,4400.03 c -10,-43.33 -26.66,-85 -35,-130 -10,-46.67 -13.32,-96.67 -20,-143.33 -11.66,-91.67 -15,-191.67 5,-281.67 15,-61.67 36.68,-116.67 65,-171.67 6.68,-11.66 21.68,-33.33 10,-45 -5,-5 -18.32,1.67 -25,-1.66 -11.66,-8.34 -1.66,-10 -8.32,-21.67 -6.68,-10 5,-11.67 -8.34,-16.67 -5,-3.33 -18.34,3.34 -23.34,6.67 -16.66,6.67 -25,16.67 -36.66,30 -20,-66.67 110,-156.67 115,-63.33 25,-8.34 40,-26.67 70,-25 20,1.66 58.34,26.66 25,45 11.66,18.33 50,16.66 50,43.33 0,28.33 -38.34,31.67 -60,35 -50,8.33 -80,28.33 -98.34,78.33 -31.47,85.87 -29.91,177.82 -36.25,267.82 -2.66,37.5 -0.71,66.19 7.45,102.22 9.89,43.69 5.48,90.38 5.48,134.91 0,46.09 9.77,93.36 7.12,137.17 -16.67,0.18 -20.46,-20.86 -19.62,-34.61"
                     style="fill:#ffffff;fill-opacity:1;fill-rule:nonzero;stroke:none"
                     id="path3605" />
                </g>
              </g>
            </g>
          </g>
        </g>
      </g>
      <g
         id="g3615">
        <g
           id="g3617"
           clip-path="url(#clipPath3621)">
          <g
             id="g3623" />
          <g
             id="g3641">
            <g
               clip-path="url(#clipPath3627)"
               opacity="0.199997"
               id="g3639">
              <g
                 id="g3637">
                <g
                   clip-path="url(#clipPath3631)"
                   id="g3635">
                  <path
                     d="m 5933.13,6000.4 c 74.4,66.31 240.39,103.45 347.48,55.44 84.71,-37.99 151.48,-116.69 173.48,-207.06 27.97,-114.86 -7.31,-238.53 23.5,-352.66 9.36,-34.68 24.62,-67.5 35.4,-101.76 34.34,-109.07 22.01,-226.72 7.15,-340.09 -5.52,-42.08 -11.44,-84.53 -26.4,-124.24 -24.31,-64.47 -72.82,-119.5 -133.74,-151.7 66.19,87.64 100.23,197.13 106.26,306.79 6.04,109.65 -14.84,219.6 -50.27,323.55 -21.48,63.03 -48.69,126.48 -46.41,193.03 0.91,26.73 6.61,53.03 11.24,79.36 12.36,70.44 21.07,174.32 -25.17,235.01 -24.24,31.83 -61.46,51.38 -99.54,63.62 -70.95,22.78 -150.69,22.58 -218.18,-9.05 -42.81,-20.05 -79.78,-53.58 -103.34,-94.3 -24.36,-42.1 -72.19,-64.75 -120.33,-57.81 -62.47,9 -158.11,18.25 -293.32,20.04 -122.52,1.62 -223.71,-9.21 -291.97,-19.81 -48.61,-7.55 -97.16,15.36 -121.88,57.91 -23.56,40.58 -60.45,73.97 -103.15,93.97 -67.48,31.63 -147.22,31.83 -218.17,9.05 -38.09,-12.24 -75.31,-31.79 -99.55,-63.62 -46.24,-60.69 -37.53,-164.57 -25.16,-235.01 4.63,-26.33 10.32,-52.63 11.24,-79.36 2.28,-66.55 -24.94,-130 -46.42,-193.03 -35.42,-103.95 -56.3,-213.9 -50.27,-323.55 6.04,-109.66 40.08,-219.15 106.27,-306.79 -60.93,32.2 -109.43,87.23 -133.74,151.7 -14.97,39.71 -20.88,82.16 -26.4,124.24 -14.86,113.37 -27.19,231.02 7.14,340.09 10.79,34.26 26.04,67.08 35.41,101.76 30.8,114.13 -4.48,237.8 23.49,352.66 22.01,90.37 88.77,169.07 173.49,207.06 88.18,39.53 216.31,21.33 300.35,-23.36 30.8,-16.39 60.88,-42.02 81.82,-69.9 15.3,-20.37 13.37,-58.31 38.12,-70.65 6.47,-3.22 13.87,-3.85 21.09,-4.29 63.77,-3.91 127.15,6.03 190.52,9.86 67.29,4.06 134.62,10.55 202.11,8.6 83.49,-2.41 166.92,-14.39 250.26,-7.4 8.32,0.69 16.56,2.79 23.9,6.77 18.01,9.74 12.96,19.82 17.73,33.63 5.1,14.76 17.78,28.68 26.78,40.1 5.91,7.5 12.05,14.84 19.18,21.2"
                     style="fill:#ffffff;fill-opacity:1;fill-rule:nonzero;stroke:none"
                     id="path3633" />
                </g>
              </g>
            </g>
          </g>
        </g>
      </g>
      <g
         id="g3643">
        <g
           id="g3645"
           clip-path="url(#clipPath3649)">
          <g
             id="g3651" />
          <g
             id="g3669">
            <g
               clip-path="url(#clipPath3655)"
               opacity="0.199997"
               id="g3667">
              <g
                 id="g3665">
                <g
                   clip-path="url(#clipPath3659)"
                   id="g3663">
                  <path
                     d="m 5381.88,5405.2 c 0,0 123.87,-121.12 267.69,0 l -28.12,40.8 -66.84,-40.8 c 0,0 -48.26,-1.02 -49.84,0.36 -1.59,1.39 -34.07,5.89 -34.07,5.89 0,0 -17.29,13.73 -28.13,15.05 -10.84,1.32 -39.15,21.31 -39.15,21.31 l -46.48,-42.61"
                     style="fill:#414141;fill-opacity:1;fill-rule:nonzero;stroke:none"
                     id="path3661" />
                </g>
              </g>
            </g>
          </g>
        </g>
      </g>
      <path
         d="m 5845.35,3602.12 c -0.96,4.31 -15.87,3.41 -40,4.22 -6.12,0.24 -12.12,0.99 -19.88,1.92 -7.22,0.84 -13.76,2.49 -16.56,5.15 -1.41,1.12 -2.88,3.28 -2.48,3.62 -0.04,0.79 0.08,2.17 0.6,2.79 0.14,0.14 0.25,0.24 0.36,0.28 0.18,0.01 0.25,-0.08 -0.31,0.24 -0.34,0.2 -0.56,0.38 -0.62,0.43 l -0.03,0.03 -0.01,0.01 c 2.5,-2.44 0.73,-0.65 1.3,-1.19 l 0.22,0.14 0.43,0.27 0.83,0.58 c 2.29,1.44 4.96,2.59 8.49,3.52 7.09,1.91 17.41,2.23 30.04,2.63 6.37,0.26 13.41,0.52 21.63,1.84 8.33,1.34 17.47,4.16 25.42,8.12 16.2,7.96 29.29,19.77 40.12,32.4 10.9,12.74 19.62,26.21 27.75,41.55 31.29,61.28 36.84,132.5 41.8,201.41 1.04,16.55 3,34.01 3.98,51.45 1.09,17.33 1.73,34.43 1.99,51.21 0.46,33.57 -0.59,65.92 -2.76,96.57 -1.09,15.32 -2.41,30.24 -3.98,44.69 -1.54,13.67 -2.53,26.89 -3.39,40.07 -1.66,26.25 -2.81,51.56 -5.29,74.93 -1.19,11.59 -2.82,23.1 -4.56,33.26 -1.64,9.39 -2.75,18.62 -3.73,27.47 -1.91,17.69 -3.64,33.85 -6.47,46.92 -5.47,26.46 -14.48,39.39 -18.12,38.13 -4.21,-1.3 -3.25,-15.3 -5.17,-39.84 -1.03,-12.61 -2.3,-28.02 -3.78,-45.9 -0.59,-9.26 -1.02,-19.39 -0.72,-30.43 0.26,-10.29 0.35,-20.41 0.18,-31.6 -0.64,-22.65 -1.33,-47.48 -2.07,-74.12 -0.22,-13.61 -0.19,-28.1 0.52,-42.89 0.6,-14.02 1.05,-28.43 1.36,-43.21 0.6,-29.54 0.44,-60.5 -0.78,-92.49 -0.64,-16 -1.54,-32.24 -2.77,-48.69 -1.12,-16.38 -3.12,-33.07 -4.28,-51.22 -2.43,-34.81 -4.67,-67.7 -9.22,-98.44 -4.58,-30.62 -11.4,-59.09 -22.34,-82.87 -5.35,-11.57 -12.03,-23.33 -19.16,-32.76 -7.08,-9.52 -14.7,-17 -22.28,-21.58 -3.9,-2.34 -7.35,-3.82 -11.69,-5 -4.47,-1.2 -10.1,-2.04 -16.11,-2.85 -12.08,-1.74 -25.9,-3.01 -40.38,-8.81 -7.19,-2.92 -14.4,-7.2 -20.38,-12.76 -1.53,-1.51 -2.78,-2.66 -4.42,-4.5 -1.85,-2.11 -3.42,-4.39 -4.73,-6.74 -2.59,-4.73 -4.02,-9.68 -4.58,-14.44 -1.06,-9.55 1.13,-18.49 5.78,-26.13 5.18,-8.08 11.17,-12.22 17.62,-15.47 13.29,-6.11 24.35,-4.92 32.44,-4.37 7.75,0.75 15.94,1.8 22.5,3.43 26.55,6.76 38.56,15.31 37.69,19.02"
         style="fill:#414141;fill-opacity:1;fill-rule:nonzero;stroke:none"
         id="path3671" />
      <path
         d="m 6167.63,4159.5 c -4.13,0.3 -9.1,-10.85 -14.53,-31.13 -2.77,-10.14 -5.43,-22.58 -8.58,-36.99 -3.36,-14.36 -6.87,-30.72 -10.44,-48.79 -15.18,-72.12 -36.18,-171.34 -71.77,-276.17 -17.64,-52.47 -37.96,-100.87 -58.8,-143.8 -5.28,-10.71 -10.53,-21.16 -15.81,-31.31 -2.53,-4.87 -5.03,-9.65 -7.49,-14.37 -1.87,-3.43 -4.14,-6.87 -6.75,-10.14 -10.5,-13.14 -25.02,-23.23 -37.79,-27.86 -3.3,-1.23 -5.96,-1.87 -8.76,-2.34 -2.56,-0.5 -3.88,-0.61 -5.51,-0.63 -3.15,0.08 -6.75,1.23 -8.92,3.83 -2.25,2.55 -3.05,5.98 -2.95,9.26 -0.07,1.72 0.34,3.27 0.59,5.03 0.93,2.35 1.17,3.86 2.49,6.84 4.64,12.02 4.83,18.06 6.63,22.54 1.5,4.48 3.32,7.32 2.21,9.14 -0.95,1.65 -4.94,2.62 -11.05,-0.89 -6.25,-3.27 -12.17,-12.5 -17.69,-18.57 -1.41,-1.44 -3.84,-4.74 -5.83,-7.37 -1.99,-3.53 -4.44,-7.42 -5.78,-11.88 -3.18,-8.74 -4.07,-19.67 0.27,-30.11 4.16,-10.5 13.96,-19.26 26.65,-23.91 6.35,-2.27 13.69,-3.5 19.97,-3.6 6.03,-0.2 12.43,0.4 18.12,1.55 23.19,4.79 45.06,16.48 64.17,35.53 4.76,4.81 9.27,10.24 13.43,16.36 3.22,5.06 6.49,10.2 9.8,15.42 6.29,10.07 12.58,20.64 18.88,31.64 24.92,44.14 48.16,95.09 66.7,150.26 37.47,110.41 52.38,214.75 57.03,289.88 0.94,18.84 1.52,35.89 1.74,50.85 0.01,14.99 -0.72,27.93 -1.51,38.51 -1.69,21.15 -4.59,32.92 -8.72,33.22"
         style="fill:#414141;fill-opacity:1;fill-rule:nonzero;stroke:none"
         id="path3673" />
      <path
         d="m 5920.08,3601.43 c -6.42,1.88 -15.32,-11.63 -33.18,-26.87 -2.09,-2 -4.86,-3.77 -7.32,-5.83 -2.54,-2.05 -5.29,-4.35 -7.16,-5.21 -4.41,-2.47 -10.49,-4.89 -17.17,-6.69 -13.15,-3.74 -30.25,-4.87 -41.31,-0.95 -1.3,0.5 -2.36,1.11 -3.62,1.5 -0.84,0.7 -1.86,1.18 -2.71,1.75 -0.51,0.64 -1.64,1.43 -1.94,1.64 -0.16,0.12 -0.46,0.43 -0.54,0.44 -0.34,0 -1.16,0.58 -1.03,1.42 0.14,0.43 0.03,0.78 0.82,1.39 2.07,1.03 5.92,2.34 9.28,3.49 3.31,1.12 7.88,2.51 11.98,4.37 4.21,1.61 7.7,3.78 11.16,5.7 13.59,8.4 22,19.3 25.09,27.78 1.72,4.16 2.06,7.77 1.77,10.35 -0.26,2.56 -1.14,4.1 -2.55,4.74 -3.04,1.4 -7,-1.2 -12.99,-4.27 -5.87,-3.2 -13.83,-6.97 -24.37,-9.58 -2.68,-0.46 -5.49,-1.31 -8.25,-1.53 -2.77,-0.46 -5.54,-0.62 -9.84,-1.11 -4.22,-0.56 -8.23,-1 -14.05,-2.48 -6.97,-2.07 -15.05,-5.18 -20.93,-10.46 -5.98,-5.14 -10.68,-12.41 -11.75,-20.76 -1.21,-8.24 0.26,-17.11 4.44,-25.47 1.7,-4.3 4.4,-7.91 7.02,-11.69 2.7,-3.55 5.45,-5.83 8.39,-8.67 3.01,-2.42 6.28,-4.47 9.56,-6.54 3.31,-1.57 6.75,-3.25 10.16,-4.49 13.75,-4.68 26.61,-5.01 38.25,-3.88 11.67,1.21 22.27,4.21 32.01,8.3 9.72,4.16 18.61,9.37 26.41,16.56 4.28,3.92 6.58,7.19 8.99,10.39 2.37,3.29 4.82,6.15 6.68,9.46 7.77,12.81 11.63,24.56 12.37,32.96 0.58,8.56 -0.71,13.3 -3.67,14.24"
         style="fill:#414141;fill-opacity:1;fill-rule:nonzero;stroke:none"
         id="path3675" />
      <path
         d="m 6464.59,3737.94 c 18.5,0.1 37.86,2.22 56.16,-1.11 6.64,-1.2 13.36,-2.95 18.79,-7.17 -2.5,1.94 1.84,-2.07 2.39,-2.78 -2.38,3.05 1.98,-3.52 2.53,-4.8 -1.71,3.99 0.34,-2.45 0.59,-3.78 0.59,-2.95 -0.16,0.68 -0.17,1.06 0.07,-1.49 0.14,-3 0.03,-4.49 -0.36,-4.8 0.93,2.44 -0.41,-2.17 -0.43,-1.44 -0.79,-2.87 -1.34,-4.26 0.89,2.29 0.75,1.87 -0.27,-0.08 -0.5,-0.99 -1.14,-1.92 -1.76,-2.83 -2.18,-3.22 2.17,2.85 -0.31,-0.17 -0.61,-0.76 -1.59,-1.81 -2.43,-2.35 0.88,0.56 3.63,2.49 -0.5,-0.15 -1.66,-1.06 -5.89,-2.4 -9.16,-2.4 -32.34,0.05 -61.25,27.04 -89.27,39.99 -30.46,14.06 -61.39,15.11 -94.37,16.32 -14.38,0.53 -28.75,0.93 -41.89,3.92 -3.27,0.75 -6.52,1.63 -9.68,2.71 -1.27,0.43 -0.66,0.31 -3.81,1.69 -3.46,1.51 -4.44,2.33 -6.16,5.98 -11.64,24.87 -4.75,58.17 -4.98,84.98 -0.68,77.35 11.91,153.89 30.39,228.82 21.13,85.65 49.9,169.41 84,250.73 5.22,12.46 -5.64,27.51 -17.46,30.76 -14.43,3.95 -25.52,-4.96 -30.75,-17.46 -34.37,-82 -63.36,-166.47 -84.52,-252.85 -10.91,-44.58 -19.44,-89.65 -25.23,-135.19 -5.18,-40.93 -5.37,-81.42 -6.66,-122.52 -1.07,-34.34 -3.96,-77.48 21.09,-104.78 23.84,-25.96 66.62,-25.8 99.07,-26.91 8.89,-0.31 17.77,-0.54 26.66,-1.06 8.09,-0.48 13.91,-0.91 20.05,-2.18 17.86,-3.71 33.49,-13.37 49.08,-22.42 32.64,-18.96 73.55,-41.19 111.66,-24.74 34.64,14.96 48.35,57.82 31.69,91.06 -22.84,45.56 -80.16,40.86 -123.05,40.63 -32.16,-0.18 -32.23,-50.18 0,-50"
         style="fill:#414141;fill-opacity:1;fill-rule:nonzero;stroke:none"
         id="path3677" />
      <path
         d="m 4701.83,4500.91 c -36.36,61.64 -70.04,125.11 -111.97,183.27 -40.94,56.78 -90.03,110.53 -154.74,140.11 -57.84,26.42 -122.33,32.99 -180.73,4.55 -54.46,-26.52 -90.68,-80.09 -109.43,-136.21 -44.39,-132.83 2.88,-281.76 59.52,-403.17 61.12,-130.96 145.43,-251 237.21,-362.17 22.65,-27.44 47.02,-51.92 72.44,-76.77 6.7,-6.54 13.52,-12.97 19.82,-19.88 1.95,-2.14 3.85,-4.32 5.7,-6.54 1.87,-2.23 0.09,0 -0.23,0.42 0.88,-1.17 1.78,-2.38 2.56,-3.61 0.87,-1.38 1.78,-4.02 2.97,-5.08 -2.68,2.38 -1.15,4.01 -0.87,1.47 0.01,3.21 0.01,6.41 0.02,9.61 4.33,4.55 8.66,9.13 13,13.69 -1.29,2.17 -14.62,3.86 -18.01,4.57 -10.94,2.22 -22.47,3.38 -33.63,3.78 -18.84,0.64 -38.27,-2.24 -56.13,-8.31 -18.58,-6.3 -35.4,-17.36 -42.13,-36.65 -4.64,-13.29 -6.7,-31.75 -2.57,-45.49 5.02,-16.7 18.54,-27.34 32.68,-36.31 27.25,-17.3 52.36,25.95 25.24,43.17 -2.58,1.64 -5.09,3.34 -7.52,5.14 -1.1,0.8 -1.84,2.01 -2.92,2.8 0.23,-0.16 2.02,-2.71 0.4,-0.38 -1.75,2.52 0.57,-0.76 0.34,-1.13 -0.56,-0.86 0.52,7.13 -0.18,-0.26 0.28,2.89 0.07,5.84 0.38,8.75 0.27,2.63 0.36,6.83 2.93,9.11 2.72,2.43 9.68,4.09 14.3,5.36 16.84,4.61 33.96,5.42 51.28,2.91 16.87,-2.45 32.95,-10.21 50.23,-4.8 16.49,5.16 24.67,22.13 20.31,38.44 -3.15,11.79 -11.69,21.97 -19.47,30.97 -16.45,19 -35.9,35.48 -53.87,52.96 -22.73,22.1 -42.37,47.85 -62.17,72.55 -19.88,24.82 -39.16,50.11 -57.83,75.85 -41.24,56.85 -79.69,115.83 -113.57,177.4 -61.71,112.14 -117.02,243.02 -105.7,373.84 4.62,53.36 24.89,108.54 63.05,145.09 35.07,33.59 82.78,45.11 130.84,33.52 61.9,-14.93 111.02,-57.25 150.74,-105.23 43.13,-52.1 76.44,-111.86 110.02,-170.31 8.11,-14.12 16.24,-28.23 24.52,-42.26 16.33,-27.7 59.57,-2.57 43.17,25.23"
         style="fill:#414141;fill-opacity:1;fill-rule:nonzero;stroke:none"
         id="path3679" />
      <path
         d="m 6373.24,4475.67 c 34.43,58.38 66.45,118.32 105.35,173.94 36.47,52.14 80.24,101.12 138.4,129.15 25.26,12.16 52.4,19.36 79.5,19.22 23.02,-0.11 45.55,-5.97 65.55,-17.52 43.71,-25.21 70.77,-73.15 83.2,-123.66 14.55,-59.08 9.17,-121.8 -4.21,-180.59 -15.03,-66.02 -40.23,-129.32 -70.45,-189.76 -60.03,-120.08 -138.26,-231.17 -224.2,-334.02 -20.61,-24.66 -43.27,-46.49 -66.33,-68.82 -15.19,-14.7 -34.2,-31.33 -40.25,-52.31 -4.72,-16.35 4.12,-33.2 20.31,-38.44 17.18,-5.57 33.43,2.35 50.23,4.79 17.29,2.51 34.45,1.69 51.28,-2.91 4.66,-1.28 11.21,-2.54 14.41,-5.5 2.15,-1.97 2.53,-6.2 2.82,-8.97 0.3,-2.92 0.1,-5.86 0.37,-8.75 -0.03,0.35 0.8,4.08 0.09,1.29 -0.71,-2.82 0.33,0.86 0.64,1.05 -2.97,-1.81 1.28,0.33 -2.02,-2.42 -2.75,-2.3 -5.5,-4.12 -8.58,-6.08 -27.1,-17.2 -2.04,-60.48 25.23,-43.18 14.13,8.98 27.67,19.62 32.68,36.31 4.4,14.67 1.98,34.6 -3.82,48.47 -14.81,35.44 -65.28,43.5 -99.11,41.9 -9.99,-0.47 -20.14,-1.6 -29.97,-3.41 -3.18,-0.6 -18.23,-2.64 -19.56,-4.86 2.17,-2.28 4.33,-4.56 6.5,-6.84 5.43,-2.58 7.6,-6.46 6.51,-11.64 0.78,-3.89 0.16,-4.9 -0.23,-4.84 0.45,-0.07 -1.74,-2.38 0.23,0.2 0.77,1 1.45,2.39 2.11,3.43 0.65,1.04 3.9,5.21 1.55,2.26 2.05,2.58 4.26,5.04 6.47,7.47 19.41,21.29 42.15,39.35 61.63,60.54 45.59,49.58 86.5,104.77 125.59,159.51 43.24,60.55 83.28,123.54 117.82,189.48 63.95,122.11 118.65,266.14 95.36,406.19 -9.91,59.59 -37.39,120.67 -85.31,159.22 -47.89,38.52 -108.23,50.51 -167.81,36.12 -142.85,-34.52 -222.22,-179.44 -289.71,-296.91 -8.43,-14.66 -16.85,-29.32 -25.44,-43.88 -16.39,-27.77 26.82,-52.95 43.17,-25.23"
         style="fill:#414141;fill-opacity:1;fill-rule:nonzero;stroke:none"
         id="path3681" />
      <path
         d="m 5174.53,3602.12 c -0.88,-3.71 11.14,-12.26 37.69,-19.02 6.56,-1.63 14.75,-2.68 22.5,-3.43 8.09,-0.55 19.15,-1.74 32.44,4.37 6.45,3.25 12.44,7.39 17.62,15.47 4.65,7.64 6.84,16.58 5.78,26.13 -0.56,4.76 -1.99,9.71 -4.58,14.44 -1.31,2.35 -2.89,4.63 -4.73,6.74 -1.65,1.84 -2.89,2.99 -4.43,4.49 -5.97,5.56 -13.18,9.85 -20.37,12.77 -14.48,5.8 -28.3,7.07 -40.38,8.81 -6.01,0.81 -11.64,1.65 -16.11,2.85 -4.34,1.18 -7.79,2.66 -11.69,5 -7.58,4.58 -15.2,12.06 -22.28,21.58 -7.13,9.43 -13.81,21.19 -19.16,32.76 -10.94,23.78 -17.76,52.25 -22.34,82.87 -4.54,30.74 -6.79,63.63 -9.22,98.44 -1.16,18.15 -3.16,34.84 -4.28,51.22 -1.23,16.45 -2.13,32.69 -2.77,48.69 -1.22,31.99 -1.38,62.95 -0.78,92.49 0.31,14.78 0.76,29.19 1.36,43.21 0.71,14.79 0.74,29.28 0.52,42.89 -0.74,26.65 -1.43,51.47 -2.07,74.12 -0.17,11.19 -0.08,21.31 0.18,31.6 0.3,11.04 -0.13,21.17 -0.72,30.43 -1.48,17.88 -2.75,33.29 -3.78,45.9 -1.92,24.54 -0.96,38.54 -5.17,39.84 -3.64,1.26 -12.65,-11.67 -18.12,-38.13 -2.82,-13.07 -4.56,-29.23 -6.47,-46.92 -0.98,-8.85 -2.09,-18.08 -3.73,-27.47 -1.74,-10.16 -3.37,-21.67 -4.56,-33.26 -2.49,-23.37 -3.63,-48.68 -5.3,-74.93 -0.85,-13.18 -1.84,-26.4 -3.38,-40.07 -1.57,-14.45 -2.89,-29.37 -3.98,-44.69 -2.17,-30.65 -3.22,-62.99 -2.76,-96.56 0.26,-16.79 0.9,-33.89 1.98,-51.22 0.99,-17.44 2.95,-34.9 3.99,-51.45 4.96,-68.91 10.51,-140.13 41.8,-201.41 8.13,-15.34 16.85,-28.81 27.75,-41.55 10.83,-12.63 23.92,-24.43 40.12,-32.4 7.95,-3.96 17.09,-6.78 25.42,-8.12 8.22,-1.32 15.26,-1.58 21.63,-1.84 12.63,-0.4 22.95,-0.72 30.03,-2.63 3.53,-0.93 6.2,-2.08 8.5,-3.52 l 0.83,-0.58 0.43,-0.27 0.22,-0.14 c 0.57,0.54 -1.2,-1.25 1.3,1.19 l -0.01,-0.01 -0.03,-0.03 c -0.07,-0.06 -0.28,-0.23 -0.62,-0.43 -0.56,-0.32 -0.49,-0.23 -0.31,-0.25 0.11,-0.04 0.22,-0.13 0.36,-0.27 0.52,-0.62 0.64,-2 0.6,-2.79 0.4,-0.34 -1.07,-2.5 -2.48,-3.62 -2.8,-2.66 -9.34,-4.31 -16.56,-5.15 -7.76,-0.93 -13.76,-1.68 -19.88,-1.92 -24.13,-0.81 -39.04,0.09 -40,-4.22"
         style="fill:#414141;fill-opacity:1;fill-rule:nonzero;stroke:none"
         id="path3683" />
      <path
         d="m 4852.26,4159.5 c -4.13,-0.3 -7.03,-12.07 -8.73,-33.22 -0.8,-10.58 -1.51,-23.52 -1.51,-38.51 0.23,-14.96 0.8,-32.01 1.75,-50.85 4.65,-75.13 19.55,-179.47 57.03,-289.88 18.54,-55.17 41.77,-106.12 66.7,-150.26 6.3,-11 12.59,-21.57 18.88,-31.64 3.31,-5.22 6.58,-10.36 9.8,-15.42 4.16,-6.12 8.67,-11.55 13.43,-16.36 19.1,-19.05 40.98,-30.74 64.17,-35.53 5.68,-1.15 12.09,-1.75 18.11,-1.55 6.29,0.1 13.63,1.33 19.98,3.6 12.68,4.65 22.49,13.41 26.65,23.91 4.33,10.44 3.44,21.37 0.27,30.11 -1.34,4.46 -3.79,8.35 -5.78,11.88 -1.99,2.62 -4.42,5.93 -5.83,7.37 -5.52,6.07 -11.45,15.3 -17.7,18.57 -6.1,3.51 -10.09,2.54 -11.04,0.89 -1.12,-1.82 0.7,-4.66 2.2,-9.14 1.81,-4.48 2,-10.52 6.64,-22.54 1.32,-2.98 1.56,-4.49 2.49,-6.84 0.25,-1.76 0.66,-3.31 0.59,-5.03 0.1,-3.28 -0.7,-6.71 -2.95,-9.26 -2.18,-2.6 -5.77,-3.75 -8.93,-3.83 -1.62,0.02 -2.94,0.13 -5.5,0.63 -2.8,0.47 -5.46,1.11 -8.77,2.34 -12.76,4.63 -27.28,14.72 -37.78,27.86 -2.61,3.27 -4.88,6.71 -6.75,10.14 -2.47,4.72 -4.97,9.5 -7.49,14.37 -5.28,10.15 -10.53,20.6 -15.82,31.31 -20.83,42.93 -41.16,91.33 -58.8,143.8 -35.59,104.83 -56.59,204.05 -71.77,276.17 -3.57,18.07 -7.07,34.43 -10.43,48.79 -3.16,14.41 -5.82,26.85 -8.58,36.99 -5.43,20.28 -10.4,31.43 -14.53,31.13"
         style="fill:#414141;fill-opacity:1;fill-rule:nonzero;stroke:none"
         id="path3685" />
      <path
         d="m 5099.8,3601.43 c -2.95,-0.94 -4.25,-5.68 -3.67,-14.24 0.74,-8.4 4.6,-20.15 12.38,-32.96 1.85,-3.31 4.3,-6.17 6.67,-9.46 2.41,-3.2 4.71,-6.47 8.99,-10.39 7.8,-7.19 16.69,-12.4 26.41,-16.56 9.74,-4.09 20.34,-7.09 32.01,-8.3 11.64,-1.13 24.5,-0.8 38.25,3.88 3.41,1.24 6.84,2.91 10.16,4.49 3.27,2.07 6.55,4.12 9.56,6.54 2.94,2.84 5.7,5.12 8.39,8.67 2.62,3.78 5.32,7.39 7.01,11.67 4.19,8.38 5.66,17.25 4.45,25.49 -1.07,8.35 -5.76,15.62 -11.75,20.76 -5.88,5.28 -13.96,8.39 -20.93,10.45 -5.82,1.49 -9.83,1.93 -14.05,2.49 -4.3,0.49 -7.07,0.65 -9.83,1.11 -2.77,0.22 -5.58,1.07 -8.26,1.53 -10.53,2.61 -18.5,6.38 -24.37,9.58 -5.99,3.07 -9.95,5.67 -12.99,4.27 -1.41,-0.64 -2.29,-2.18 -2.55,-4.74 -0.28,-2.58 0.05,-6.19 1.77,-10.35 3.1,-8.48 11.5,-19.38 25.09,-27.78 3.47,-1.92 6.95,-4.09 11.16,-5.7 4.1,-1.86 8.67,-3.25 11.98,-4.37 3.36,-1.15 7.21,-2.46 9.28,-3.49 0.8,-0.61 0.68,-0.96 0.82,-1.39 0.13,-0.84 -0.68,-1.42 -1.02,-1.42 -0.09,-0.01 -0.39,-0.32 -0.55,-0.44 -0.3,-0.21 -1.43,-1 -1.94,-1.64 -0.85,-0.57 -1.87,-1.05 -2.71,-1.75 -1.26,-0.39 -2.32,-1 -3.62,-1.5 -11.06,-3.92 -28.16,-2.78 -41.31,0.95 -6.68,1.8 -12.76,4.22 -17.17,6.69 -1.87,0.86 -4.62,3.16 -7.16,5.21 -2.46,2.06 -5.23,3.83 -7.32,5.83 -17.86,15.24 -26.76,28.75 -33.18,26.87"
         style="fill:#414141;fill-opacity:1;fill-rule:nonzero;stroke:none"
         id="path3687" />
      <path
         d="m 4555.3,3787.94 c -40.84,0.22 -91.22,4.97 -118.15,-32.63 -18.38,-25.65 -15.34,-62.66 6.55,-85.3 28.77,-29.75 72.2,-19.74 105.21,-3.7 18.27,8.89 35.05,20.54 53.36,29.34 15.18,7.31 27.15,9.03 42.45,9.94 35.13,2.09 73.22,-0.98 105.99,14.06 35.67,16.37 41.29,57.69 41.4,92.82 0.24,84.34 -6.67,167.15 -24.62,249.69 -21.35,98.21 -53.52,194.11 -92.35,286.74 -5.21,12.44 -16.53,21.36 -30.75,17.46 -11.74,-3.23 -22.71,-18.22 -17.46,-30.76 30.17,-71.97 56.09,-145.81 76.37,-221.19 20.27,-75.33 35.56,-152.72 37.8,-230.88 0.46,-16.09 0.03,-32.15 0.54,-48.24 0.49,-15.34 1.42,-31.16 -0.69,-46.42 -0.67,-4.88 -2.01,-11.39 -4.11,-16.41 -1.72,-4.08 -3.45,-5.62 -5.54,-6.77 -8.23,-4.48 -21.43,-6.7 -32.92,-7.65 -30.42,-2.52 -62.36,0.34 -92.12,-7.62 -34.24,-9.17 -60.8,-34.47 -93.93,-45.64 -7.34,-2.48 -14.77,-4.51 -22.56,-4.27 -2.35,0.07 -8.15,2.39 -9,3.05 0.32,-0.25 -2.77,3.08 -2.01,1.97 -0.63,0.92 -1.19,1.87 -1.77,2.83 -2.35,3.91 0.21,-1.46 -0.63,1.13 -0.54,1.64 -1.75,7.92 -1.23,3.15 -0.16,1.46 0.19,9.6 -0.52,4.55 0.18,1.26 2.59,9.03 0.82,4.89 0.61,1.43 4.66,7.8 2.52,4.8 2.88,4.05 6.54,6.02 13.41,8.09 20.3,6.11 43.06,3.09 63.94,2.97 32.18,-0.18 32.22,49.82 0,50"
         style="fill:#414141;fill-opacity:1;fill-rule:nonzero;stroke:none"
         id="path3689" />
      <path
         d="m 4581.53,4848.91 c -9.3,-58.25 -14.06,-117.25 -14.07,-176.25"
         style="fill:none;stroke:#414141;stroke-width:55;stroke-linecap:butt;stroke-linejoin:miter;stroke-miterlimit:10;stroke-dasharray:none;stroke-opacity:1"
         id="path3691" />
      <path
         d="m 6444.16,4848.91 c 9.3,-58.25 14.05,-127.25 14.07,-186.25"
         style="fill:none;stroke:#414141;stroke-width:55;stroke-linecap:butt;stroke-linejoin:miter;stroke-miterlimit:10;stroke-dasharray:none;stroke-opacity:1"
         id="path3693" />
      <path
         d="m 5121.3,3714.4 c 0,0 328.91,-72.87 769.96,0"
         style="fill:none;stroke:#414141;stroke-width:58.42;stroke-linecap:butt;stroke-linejoin:miter;stroke-miterlimit:10;stroke-dasharray:none;stroke-opacity:1"
         id="path3695" />
      <path
         d="m 6089.05,3751.59 c 0,0 97.24,23.02 163.73,86.33"
         style="fill:none;stroke:#414141;stroke-width:58.42;stroke-linecap:butt;stroke-linejoin:miter;stroke-miterlimit:10;stroke-dasharray:none;stroke-opacity:1"
         id="path3697" />
      <path
         d="m 4932.2,3751.59 c 0,0 -97.24,23.02 -163.73,86.33"
         style="fill:none;stroke:#414141;stroke-width:58.42;stroke-linecap:butt;stroke-linejoin:miter;stroke-miterlimit:10;stroke-dasharray:none;stroke-opacity:1"
         id="path3699" />
      <g
         id="g3701">
        <g
           id="g3703"
           clip-path="url(#clipPath3707)">
          <g
             id="g3709" />
          <g
             id="g3727">
            <g
               clip-path="url(#clipPath3713)"
               opacity="0.199997"
               id="g3725">
              <g
                 id="g3723">
                <g
                   clip-path="url(#clipPath3717)"
                   id="g3721">
                  <path
                     d="m 4655.94,4325.04 c 43.33,-26.67 85,-51.67 115,-93.34 13.33,-18.33 23.33,-38.33 31.67,-58.33 11.66,-21.67 25,-31.67 38.33,-50 21.67,-28.33 23.33,-81.67 31.67,-116.67 10,-43.33 21.66,-90 26.66,-135 3.34,-30 33.34,-116.66 -18.33,-103.33 -30,8.33 -90,48.33 -106.67,73.33 -23.33,38.34 -23.33,90 -28.33,133.34 -5,43.33 -11.67,85 -21.67,126.66 -18.33,75 -48.33,146.67 -66.66,220"
                     style="fill:#414141;fill-opacity:1;fill-rule:nonzero;stroke:none"
                     id="path3719" />
                </g>
              </g>
            </g>
          </g>
        </g>
      </g>
      <g
         id="g3729">
        <g
           id="g3731"
           clip-path="url(#clipPath3735)">
          <g
             id="g3737" />
          <g
             id="g3755">
            <g
               clip-path="url(#clipPath3741)"
               opacity="0.199997"
               id="g3753">
              <g
                 id="g3751">
                <g
                   clip-path="url(#clipPath3745)"
                   id="g3749">
                  <path
                     d="m 5168.44,4005.87 c 5,-62.5 27.5,-145 82.5,-182.5 77.03,-52.52 174.14,-43.63 262.56,-41.94 84.27,1.61 183.37,-8 256.61,41.94 55,37.5 77.5,120 82.5,182.5 5.47,68.33 7.36,137.04 15.25,205.17 3.99,34.4 9.63,68.67 18.48,102.18 4.43,16.79 9.63,33.39 15.78,49.64 4.16,10.98 8.17,34.84 17.15,42.35 20.89,-12.44 16.67,-57.24 16.67,-78.47 0,-34.94 -1.56,-67.71 -5.04,-101.7 -6.71,-65.52 1.71,-134.39 1.71,-200.38 0,-66.43 1.33,-132.84 -12.96,-196.2 -6.74,-29.85 -12.66,-63.14 -26.59,-90.08 -17.12,-33.12 -52.2,-42.02 -85.33,-50.34 -64.35,-16.17 -141.51,-9.81 -208.08,-6.71 -66.55,3.09 -132.09,8.99 -198.71,12.03 -75.85,3.46 -158.25,-6.87 -230.24,22.72 -88.09,36.23 -94.77,133.78 -92.02,217.33 0.29,8.72 0.99,17.49 0.59,26.21 -1.62,36.19 -1.66,72.34 -1.66,108.34 0,34.27 -1.64,67.56 -1.67,102.07 -0.03,31.05 6.92,59.57 10,90.05 5.01,49.58 0.38,100.56 3.98,149.35 0.35,4.66 19.09,-22.5 20.07,-24.66 7.72,-17.07 13.99,-34.89 19.42,-52.81 10.45,-34.43 17.18,-69.88 21.88,-105.53 9.64,-73.18 10.59,-147.11 17.15,-220.56"
                     style="fill:#414141;fill-opacity:1;fill-rule:nonzero;stroke:none"
                     id="path3747" />
                </g>
              </g>
            </g>
          </g>
        </g>
      </g>
      <g
         id="g3757">
        <g
           id="g3759"
           clip-path="url(#clipPath3763)">
          <g
             id="g3765" />
          <g
             id="g3783">
            <g
               clip-path="url(#clipPath3769)"
               opacity="0.199997"
               id="g3781">
              <g
                 id="g3779">
                <g
                   clip-path="url(#clipPath3773)"
                   id="g3777">
                  <path
                     d="m 6365.11,4325.04 c -43.33,-26.67 -85,-51.67 -115,-93.34 -13.33,-18.33 -23.33,-38.33 -31.67,-58.33 -11.66,-21.67 -25,-31.67 -38.33,-50 -21.67,-28.33 -23.33,-81.67 -31.67,-116.67 -10,-43.33 -21.66,-90 -26.66,-135 -3.34,-30 -33.34,-116.66 18.33,-103.33 30,8.33 90,48.33 106.67,73.33 23.33,38.34 23.33,90 28.33,133.34 5,43.33 11.67,85 21.67,126.66 18.33,75 48.33,146.67 66.66,220"
                     style="fill:#414141;fill-opacity:1;fill-rule:nonzero;stroke:none"
                     id="path3775" />
                </g>
              </g>
            </g>
          </g>
        </g>
      </g>
      <g
         id="g3785">
        <g
           id="g3787"
           clip-path="url(#clipPath3791)">
          <g
             id="g3793" />
          <g
             id="g3811">
            <g
               clip-path="url(#clipPath3797)"
               opacity="0.199997"
               id="g3809">
              <g
                 id="g3807">
                <g
                   clip-path="url(#clipPath3801)"
                   id="g3805">
                  <path
                     d="m 6359.82,4631.84 c -0.85,-42.41 -4.55,-84.78 -11.05,-126.7 8.8,1.27 14.12,10.17 18.16,18.1 19.14,37.56 38.25,75.12 57.37,112.69 6.18,12.13 12.4,24.36 16.31,37.38 8.37,27.98 5.68,57.94 1.85,86.89 -3.37,25.5 -5.46,53.96 -13.66,78.25 -25.39,-16.13 -75.1,-51.43 -82.66,-83.2 -4.05,-17.11 3.81,-33.84 7.72,-50.14 5.73,-23.97 6.62,-48.71 5.96,-73.27"
                     style="fill:#414141;fill-opacity:1;fill-rule:nonzero;stroke:none"
                     id="path3803" />
                </g>
              </g>
            </g>
          </g>
        </g>
      </g>
      <g
         id="g3813">
        <g
           id="g3815"
           clip-path="url(#clipPath3819)">
          <g
             id="g3821" />
          <g
             id="g3839">
            <g
               clip-path="url(#clipPath3825)"
               opacity="0.199997"
               id="g3837">
              <g
                 id="g3835">
                <g
                   clip-path="url(#clipPath3829)"
                   id="g3833">
                  <path
                     d="m 4654.26,4631.84 c 0.85,-42.41 4.56,-84.78 11.06,-126.7 -8.81,1.27 -14.13,10.17 -18.17,18.1 -19.13,37.56 -38.25,75.12 -57.37,112.69 -6.18,12.13 -12.39,24.36 -16.3,37.38 -8.38,27.98 -5.69,57.94 -1.86,86.89 3.38,25.5 5.47,53.96 13.66,78.25 25.4,-16.13 75.11,-51.43 82.66,-83.2 4.07,-17.11 -3.81,-33.84 -7.71,-50.14 -5.74,-23.97 -6.63,-48.71 -5.97,-73.27"
                     style="fill:#414141;fill-opacity:1;fill-rule:nonzero;stroke:none"
                     id="path3831" />
                </g>
              </g>
            </g>
          </g>
        </g>
      </g>
      <path
         d="m 4994.51,5704.2 c 0,-96.33 -56.52,-174.39 -126.25,-174.39 -69.76,0 -126.31,78.06 -126.31,174.39 0,96.33 56.55,174.43 126.31,174.43 69.73,0 126.25,-78.1 126.25,-174.43"
         style="fill:#414141;fill-opacity:1;fill-rule:nonzero;stroke:none"
         id="path3841" />
      <path
         d="m 4855.36,5799.6 c 0,-33.21 -26.92,-60.15 -60.12,-60.15 -33.21,0 -60.16,26.94 -60.16,60.15 0,33.18 26.95,60.15 60.16,60.15 33.2,0 60.12,-26.97 60.12,-60.15"
         style="fill:#ffffff;fill-opacity:1;fill-rule:nonzero;stroke:none"
         id="path3843" />
      <path
         d="m 6293.98,5704.2 c 0,-96.33 -56.53,-174.39 -126.25,-174.39 -69.76,0 -126.31,78.06 -126.31,174.39 0,96.33 56.55,174.43 126.31,174.43 69.72,0 126.25,-78.1 126.25,-174.43"
         style="fill:#414141;fill-opacity:1;fill-rule:nonzero;stroke:none"
         id="path3845" />
      <path
         d="m 6154.83,5799.6 c 0,-33.21 -26.93,-60.15 -60.13,-60.15 -33.21,0 -60.15,26.94 -60.15,60.15 0,33.18 26.94,60.15 60.15,60.15 33.2,0 60.13,-26.97 60.13,-60.15"
         style="fill:#ffffff;fill-opacity:1;fill-rule:nonzero;stroke:none"
         id="path3847" />
      <path
         d="m 6354.75,4734.85 c 30.54,21.73 60.85,44.42 86.67,71.75 27.99,29.65 49.86,63.78 66.45,100.95 35.02,78.54 48.52,163.16 49.45,248.76 0.47,43.09 -1.86,86.19 -5.18,129.13 -3.57,45.92 -8.7,92.24 -20.63,136.84 -10.85,40.6 -28.63,78.96 -38.12,119.99 -9.47,40.95 -7.28,82.9 -4.23,124.51 6.42,87.49 15.69,175.42 -23.2,257.38 -32.97,69.51 -93.67,125.85 -165.75,152.61 -52.35,19.46 -110.8,27.02 -166.32,24.43 -50.22,-2.34 -99.25,-13.68 -144.6,-35.54 -54.35,-26.19 -99.15,-68.63 -132.72,-118.36 -9.77,-14.48 -18.43,-29.65 -26.31,-45.23 8.63,4.95 17.27,9.9 25.91,14.85 -76.96,4.83 -153.74,11.15 -230.8,14.43 -116.98,4.98 -233.69,1.03 -350.48,-6.8 -33.21,-2.23 -66.43,-4.64 -99.6,-7.63 8.63,-4.95 17.26,-9.9 25.91,-14.85 -29.36,58.07 -71.41,109.38 -126.2,145.08 -44.26,28.85 -95,44.91 -147.13,51.42 -59.43,7.43 -122.29,1.75 -179.53,-16.13 -65.45,-20.45 -119.71,-61.48 -159.01,-117.54 -50.79,-72.42 -58.34,-158.59 -54.16,-244.45 2.07,-42.47 6.04,-85.02 4.44,-127.58 -1.49,-39.33 -15.73,-76.01 -28.16,-112.88 -27.59,-81.88 -31.99,-169.7 -35.95,-255.43 -3.9,-84.52 -0.63,-170.93 23.82,-252.49 23.91,-79.79 65.79,-149.66 130.88,-202.24 15.1,-12.19 30.69,-23.73 46.51,-34.98 13.21,-9.39 33.38,-2.33 41.04,10.76 8.8,15.06 2.48,31.63 -10.76,41.05 -27.05,19.24 -52.88,39.19 -75.82,63.77 -25.33,27.12 -44.18,59.32 -58.44,93.49 -30.09,72.09 -38.97,150.19 -38.64,227.7 0.18,40.65 2.86,81.21 5.73,121.75 2.82,39.96 5.84,80.05 14.63,119.22 8.54,38.08 24.18,73.92 34.41,111.49 10.85,39.88 11.96,80.41 10.33,121.46 -3.14,78.24 -15.41,159.65 12.48,234.98 22.58,61 75.17,115.98 135.53,138.4 16.68,6.19 34.07,10.94 51.48,14.57 6.74,1.42 13.53,2.66 20.34,3.75 3.37,0.54 13.77,1.73 4.41,0.72 4.14,0.44 8.26,1.02 12.4,1.45 18.69,1.9 37.51,2.63 56.29,2.01 10.04,-0.33 20.06,-1.04 30.04,-2.16 2.73,-0.31 8.53,-1.16 2.33,-0.23 2.31,-0.35 4.63,-0.68 6.94,-1.06 5.87,-0.94 11.71,-2.04 17.53,-3.3 10.8,-2.32 21.49,-5.17 32,-8.59 5.62,-1.82 11.18,-3.81 16.68,-5.95 1.9,-0.74 7.15,-2.92 2.36,-0.87 3.2,-1.36 6.37,-2.8 9.51,-4.27 11.33,-5.35 22.33,-11.41 32.88,-18.15 5.11,-3.25 10.07,-6.7 14.98,-10.22 1.15,-0.83 2.29,-1.68 3.42,-2.53 -1.02,0.77 -3.92,3.14 0.72,-0.57 2.63,-2.12 5.26,-4.28 7.83,-6.47 21.9,-18.73 40.12,-39.65 54.7,-61.46 9.39,-14.05 17.73,-28.74 25.35,-43.81 4.37,-8.64 16.12,-15.74 25.9,-14.86 85.89,7.74 172.13,12.97 258.31,15.7 110.76,3.51 221.28,-1.71 331.79,-9.09 30.27,-2.02 60.5,-4.71 90.78,-6.61 9.87,-0.62 21.44,6.03 25.9,14.86 14.23,28.19 30.45,53.81 49.76,75.51 9.09,10.22 18.81,19.86 29.17,28.8 2.57,2.23 5.19,4.38 7.83,6.52 1.11,0.91 2.22,1.82 3.38,2.7 -1.02,-0.78 -4,-2.95 0.73,0.48 5.27,3.82 10.61,7.55 16.11,11.05 10.2,6.51 20.8,12.37 31.71,17.58 2.75,1.31 5.54,2.55 8.31,3.81 5.28,2.39 -3.03,-1.08 2.35,0.97 5.95,2.23 11.85,4.51 17.88,6.49 10.5,3.47 21.21,6.37 32.02,8.73 5.05,1.11 10.12,2.1 15.22,2.98 2.7,0.46 5.42,0.84 8.12,1.3 5.25,0.88 -4.81,-0.5 2.36,0.3 19.81,2.2 39.69,3.07 59.64,2.38 9.05,-0.3 18.11,-0.91 27.13,-1.79 3.89,-0.38 7.76,-0.85 11.64,-1.29 6.06,-0.7 -2.97,0.5 -1.14,0.16 2.16,-0.4 4.38,-0.63 6.55,-0.97 18.82,-2.93 37.43,-7.04 55.62,-12.68 49.75,-15.4 93.64,-47.09 123.86,-90.18 22.01,-31.4 36.39,-66.1 42.26,-104.08 5.94,-38.53 3.21,-78.4 0.27,-117.08 -3.11,-40.74 -7.52,-81.63 -6.07,-122.55 1.47,-41.34 11.83,-81.11 25.33,-119.99 13.69,-39.44 26.42,-77.9 32.9,-119.31 6.33,-40.47 8.72,-81.73 10.73,-122.62 3.83,-78.04 2.21,-157.01 -19.06,-232.7 -10.48,-37.35 -25.2,-73.89 -46.02,-106.74 -18.34,-28.94 -42.53,-53.3 -68.95,-74.94 -11.93,-9.8 -24.32,-18.75 -37.25,-27.96 -13.18,-9.38 -19.46,-26.18 -10.75,-41.05 7.62,-13.03 27.77,-20.2 41.04,-10.76"
         style="fill:#414141;fill-opacity:1;fill-rule:nonzero;stroke:none"
         id="path3849" />
      <path
         d="m 5621.45,5564.15 c 0,-10.34 -8.4,-18.73 -18.74,-18.73 -10.35,0 -18.73,8.39 -18.73,18.73 0,10.35 8.38,18.74 18.73,18.74 10.34,0 18.74,-8.39 18.74,-18.74"
         style="fill:#414141;fill-opacity:1;fill-rule:nonzero;stroke:none"
         id="path3851" />
      <path
         d="m 5611.4,5496.92 c -3.62,-9.55 -5.04,-20.46 -5.45,-30.57 -0.88,-21.89 6.21,-43.63 21.31,-59.71 11.35,-12.08 26.63,-19.75 42.26,-24.66 9.36,-2.95 20.87,3.47 23.06,13.09 2.33,10.21 -3.07,19.92 -13.09,23.06 -1.7,0.54 -3.4,1.09 -5.07,1.7 -0.75,0.27 -5.1,2.3 -2.48,0.92 2.66,-1.4 -1.52,0.74 -2.18,1.05 -1.54,0.76 -3.07,1.58 -4.57,2.43 -2.34,1.34 -4.55,2.85 -6.76,4.4 -2.63,1.83 3.17,-2.74 0.22,-0.11 -1.09,0.98 -2.19,1.93 -3.23,2.95 -1.55,1.52 -2.92,3.18 -4.37,4.8 -1.69,1.9 2.69,-3.94 0.27,-0.24 -0.63,0.97 -1.28,1.93 -1.87,2.91 -1.08,1.81 -2.01,3.68 -2.93,5.58 -1.74,3.53 1.31,-3.8 0.47,-1.1 -0.36,1.16 -0.83,2.27 -1.19,3.41 -0.59,1.88 -1.09,3.77 -1.5,5.69 -0.19,0.87 -0.36,1.75 -0.52,2.63 -0.83,4.8 0.33,-3.58 0.09,-0.89 -0.34,3.7 -0.56,7.37 -0.45,11.08 0.05,1.65 0.14,3.31 0.28,4.96 0.06,0.74 0.15,1.47 0.22,2.21 0.39,4.01 -0.54,-3.3 -0.25,-1.69 0.46,2.58 0.86,5.17 1.47,7.74 0.65,2.82 1.39,5.67 2.42,8.4 3.48,9.19 -3.86,20.96 -13.09,23.07 -10.69,2.43 -19.34,-3.27 -23.07,-13.11"
         style="fill:#414141;fill-opacity:1;fill-rule:nonzero;stroke:none"
         id="path3853" />
      <path
         d="m 5412.77,5564.15 c 0,-10.34 8.38,-18.73 18.73,-18.73 10.35,0 18.74,8.39 18.74,18.73 0,10.35 -8.39,18.74 -18.74,18.74 -10.35,0 -18.73,-8.39 -18.73,-18.74"
         style="fill:#414141;fill-opacity:1;fill-rule:nonzero;stroke:none"
         id="path3855" />
      <path
         d="m 5383.89,5486.96 c 0.83,-2.18 1.45,-4.44 2.01,-6.69 0.6,-2.38 1.11,-4.78 1.52,-7.2 0.13,-0.75 0.23,-1.5 0.36,-2.25 0.47,-2.7 -0.64,5.56 -0.32,2.3 0.17,-1.7 0.35,-3.39 0.45,-5.1 0.22,-3.6 0.21,-7.21 -0.05,-10.82 -0.06,-0.86 -0.16,-1.7 -0.23,-2.56 -0.34,-3.85 0.88,5.1 0.16,1.27 -0.38,-2.04 -0.75,-4.05 -1.27,-6.04 -0.5,-1.93 -1.14,-3.8 -1.77,-5.68 -0.13,-0.39 -0.31,-0.76 -0.43,-1.15 -0.67,-2.07 1.92,4.19 0.95,2.23 -0.55,-1.12 -1.04,-2.27 -1.61,-3.37 -0.93,-1.77 -1.94,-3.48 -3.04,-5.15 -0.32,-0.47 -0.68,-0.94 -0.99,-1.43 -1.1,-1.71 -0.93,0.42 1.33,1.65 -0.85,-0.46 -1.69,-2.06 -2.34,-2.78 -1.81,-2.03 -3.81,-3.83 -5.82,-5.67 -0.58,-0.52 -2.47,-1.82 -0.05,-0.11 2.64,1.87 0.03,0.03 -0.57,-0.4 -1.16,-0.82 -2.34,-1.61 -3.55,-2.36 -2.94,-1.83 -6,-3.35 -9.11,-4.86 -1.19,-0.59 -2.79,-0.61 1.09,0.42 -0.8,-0.21 -1.59,-0.64 -2.36,-0.93 -2.07,-0.78 -4.17,-1.48 -6.29,-2.15 -9.34,-2.93 -16.29,-13.18 -13.09,-23.05 3.03,-9.39 13.04,-16.25 23.06,-13.1 26.91,8.46 49.06,25.26 58.98,52.24 6.18,16.8 5.61,35.88 1.83,53.16 -0.71,3.21 -1.52,6.46 -2.69,9.54 -3.46,9.15 -12.8,16.43 -23.06,13.11 -8.93,-2.89 -16.83,-13.26 -13.1,-23.07"
         style="fill:#414141;fill-opacity:1;fill-rule:nonzero;stroke:none"
         id="path3857" />
      <path
         d="m 5403.42,5447.81 c 0,0 100.48,-95.87 224.61,0"
         style="fill:none;stroke:#414141;stroke-width:40;stroke-linecap:butt;stroke-linejoin:miter;stroke-miterlimit:10;stroke-dasharray:none;stroke-opacity:1"
         id="path3859" />
      <g
         id="g3888"
         transform="translate(0,45)">
        <path
           d="m 3668.07,8107.43 86.26,52.2 -178.12,211.89 -11.45,-6.57 z m 102.86,-259.16 -168.99,-81.61 -241.83,718.9 224.44,136.91 529.79,-555.28 -178.9,-124.64 -72.15,87.27 -134.31,-76.96"
           style="fill:#414141;fill-opacity:1;fill-rule:nonzero;stroke:none;stroke-width:0.9975;stroke-dasharray:none"
           id="path3861"
           inkscape:label="A1" />
        <path
           d="m 4212.04,8373.84 93.78,37.04 -140.21,238.67 -12.39,-4.55 z m 58.11,-272.7 -180.25,-52.23 -118.29,749.23 244.16,97.47 429.55,-636.04 -197.23,-93 -56.54,98.13 -145.28,-53.45"
           style="fill:#414141;fill-opacity:1;fill-rule:nonzero;stroke:none;stroke-width:0.9975;stroke-dasharray:none"
           id="path3863"
           inkscape:label="A2" />
        <path
           d="m 4502.09,8977.98 186.74,39.13 116.55,-544.48 207.01,36.02 36.92,-176.16 -385.24,-80.73"
           style="fill:#414141;fill-opacity:1;fill-rule:nonzero;stroke:none;stroke-width:0.9975;stroke-dasharray:none"
           id="path3865"
           inkscape:label="L" />
        <path
           d="m 5046.38,8875.54 -137.33,-13.52 -15.71,196.23 446.65,43.95 32.06,-190.98 -143.31,-14.11 67.45,-550.45 -202.67,-23.55"
           style="fill:#414141;fill-opacity:1;fill-rule:nonzero;stroke:none;stroke-width:0.9975;stroke-dasharray:none"
           id="path3867"
           inkscape:label="T1" />
        <path
           d="m 5462.64,9098.04 180.03,1.55 4.71,-747.7 -200.43,-1.34 z"
           style="fill:#414141;fill-opacity:1;fill-rule:nonzero;stroke:none;stroke-width:0.9975;stroke-dasharray:none"
           id="path3869"
           inkscape:label="I" />
        <path
           d="m 5861.55,8891.07 -137.19,14.94 24.9,195.26 446.15,-48.6 -7.79,-193.49 -143.15,15.59 -46.91,-552.57 -203.19,18.52"
           style="fill:#414141;fill-opacity:1;fill-rule:nonzero;stroke:none;stroke-width:0.9975;stroke-dasharray:none"
           id="path3871"
           inkscape:label="T2" />
        <path
           d="m 6533.38,8811.99 c -20.36,1.24 -42.57,-18.52 -66.61,-59.33 -24.05,-40.8 -43.29,-86.81 -57.66,-138.03 -14.41,-51.23 -20.41,-99.7 -18.05,-145.43 2.37,-45.74 15.92,-71.87 40.67,-78.43 34.02,-9.01 66.65,21.24 97.9,90.76 31.25,69.5 48.41,141.31 51.48,215.4 3.07,74.07 -12.84,112.43 -47.73,115.06 m -134.06,-595.12 c -36.19,7.11 -68.89,23.44 -98.12,48.97 -29.25,25.52 -53.02,56.87 -71.32,93.99 -18.31,37.12 -29.89,80.11 -34.73,129 -4.86,48.86 -1.19,99.4 11,151.64 8.84,36.54 21.3,73.37 37.34,110.51 16.05,37.12 36.14,72.37 60.28,105.7 24.13,33.33 50.54,61.91 79.2,85.78 28.67,23.85 61.34,40.22 98.07,49.13 36.68,8.9 74.36,8.23 113.03,-2.02 33.82,-9.8 64.32,-27.39 91.54,-52.79 27.19,-25.43 49.41,-57.17 66.63,-95.25 17.23,-38.08 26.56,-84.83 28.03,-140.25 1.45,-55.43 -6.72,-115.12 -24.48,-179.1 -12.45,-43.88 -29.43,-85.32 -50.93,-124.31 -21.5,-39.01 -46.93,-74.05 -76.27,-105.17 -29.36,-31.13 -63.96,-54.03 -103.86,-68.69 -39.89,-14.68 -81.69,-17.04 -125.41,-7.14"
           style="fill:#414141;fill-opacity:1;fill-rule:nonzero;stroke:none;stroke-width:0.9975;stroke-dasharray:none"
           id="path3873"
           inkscape:label="O" />
        <path
           d="m 6956.13,8328.45 92.88,-39.26 67.13,268.54 -12.03,5.41 z m -149.57,-235.32 -165.22,88.99 440.43,617.52 242.52,-101.46 -139.01,-754.8 -205.88,71.8 28.38,109.62 -141.11,63.65"
           style="fill:#414141;fill-opacity:1;fill-rule:nonzero;stroke:none;stroke-width:0.9975;stroke-dasharray:none"
           id="path3875"
           inkscape:label="A3" />
        <path
           d="m 7419.51,7986.95 c 21.65,-15.12 47.02,-17.62 76.12,-7.48 29.07,10.13 55.21,28.89 78.39,56.26 23.15,27.39 42.75,57.35 58.79,89.88 16.02,32.54 23.33,64.54 21.96,96.06 -1.4,31.49 -13.25,55.02 -35.57,70.57 z m 177.07,571.04 c 48.82,-26.22 90.35,-55.53 124.59,-87.96 34.22,-32.43 60.19,-65.43 77.91,-99.01 17.7,-33.56 29.99,-68.13 36.85,-103.68 6.85,-35.56 7.44,-70.82 1.76,-105.82 -5.68,-35 -15,-68.59 -27.91,-100.76 -12.94,-32.18 -29.37,-62.77 -49.29,-91.8 -74.07,-107.38 -163.11,-164.57 -267.1,-171.57 -104.02,-7.02 -205.33,34.65 -303.97,124.98"
           style="fill:#414141;fill-opacity:1;fill-rule:nonzero;stroke:none;stroke-width:0.9975;stroke-dasharray:none"
           id="path3877"
           inkscape:label="D" />
      </g>
      <path
         d="m 8685.9855,5001.1401 c 0,-1749.2127 -1418.0129,-3167.2256 -3167.2154,-3167.2256 -1749.2127,0 -3167.2256,1418.0129 -3167.2256,3167.2256 0,1749.2025 1418.0129,3167.2154 3167.2256,3167.2154 1749.2025,0 3167.2154,-1418.0129 3167.2154,-3167.2154 z"
         style="display:none;fill:none;fill-opacity:1;stroke:#ffffff;stroke-width:161.388;stroke-linecap:butt;stroke-linejoin:miter;stroke-miterlimit:10;stroke-dasharray:none;stroke-opacity:1;paint-order:normal"
         id="path5637"
         inkscape:label="Outer Rim2" />
      <path
         d="m 8641.33,5001.14 c 0,-1724.55 -1398.02,-3122.57 -3122.56,-3122.57 -1724.55,0 -3122.57,1398.02 -3122.57,3122.57 0,1724.54 1398.02,3122.56 3122.57,3122.56 1724.54,0 3122.56,-1398.02 3122.56,-3122.56 z"
         style="display:inline;fill:none;fill-opacity:1;stroke:#414141;stroke-width:69.11;stroke-linecap:butt;stroke-linejoin:miter;stroke-miterlimit:10;stroke-dasharray:none;stroke-opacity:1"
         id="path3499"
         inkscape:label="Outer Rim" />
    </g>
  </g>
</svg>
