<?xml version="1.0" encoding="UTF-8" standalone="no"?>
<!-- Created with Inkscape (http://www.inkscape.org/) -->

<svg
   version="1.1"
   id="svg48"
   width="370.18442"
   height="347.40134"
   viewBox="0 0 370.18442 347.40134"
   sodipodi:docname="toad_only.svg"
   inkscape:version="1.2.2 (b0a84865, 2022-12-01)"
   xmlns:inkscape="http://www.inkscape.org/namespaces/inkscape"
   xmlns:sodipodi="http://sodipodi.sourceforge.net/DTD/sodipodi-0.dtd"
   xmlns="http://www.w3.org/2000/svg"
   xmlns:svg="http://www.w3.org/2000/svg">
  <defs
     id="defs52">
    <clipPath
       clipPathUnits="userSpaceOnUse"
       id="clipPath350">
      <path
         d="m 5828.46,3686.11 h 513.48 v 1139.67 h -513.48 z"
         id="path348" />
    </clipPath>
    <clipPath
       clipPathUnits="userSpaceOnUse"
       id="clipPath356">
      <path
         d="m 5828.46,3686.11 h 513.48 v 1139.67 h -513.48 z"
         id="path354" />
    </clipPath>
    <clipPath
       clipPathUnits="userSpaceOnUse"
       id="clipPath360">
      <path
         d="m 5828.46,3686.11 h 513.48 v 1139.67 h -513.48 z"
         id="path358" />
    </clipPath>
    <clipPath
       clipPathUnits="userSpaceOnUse"
       id="clipPath378">
      <path
         d="m 3640.63,3686.11 h 513.473 V 4825.78 H 3640.63 Z"
         id="path376" />
    </clipPath>
    <clipPath
       clipPathUnits="userSpaceOnUse"
       id="clipPath384">
      <path
         d="M 3640.63,3686.11 H 4154.1 V 4825.78 H 3640.63 Z"
         id="path382" />
    </clipPath>
    <clipPath
       clipPathUnits="userSpaceOnUse"
       id="clipPath388">
      <path
         d="m 3640.63,3686.11 h 513.473 V 4825.78 H 3640.63 Z"
         id="path386" />
    </clipPath>
    <clipPath
       clipPathUnits="userSpaceOnUse"
       id="clipPath406">
      <path
         d="m 5229.3,3536.69 h 262.09 v 878.438 H 5229.3 Z"
         id="path404" />
    </clipPath>
    <clipPath
       clipPathUnits="userSpaceOnUse"
       id="clipPath412">
      <path
         d="m 5229.3,3536.69 h 262.09 v 878.44 H 5229.3 Z"
         id="path410" />
    </clipPath>
    <clipPath
       clipPathUnits="userSpaceOnUse"
       id="clipPath416">
      <path
         d="m 5229.3,3536.69 h 262.09 v 878.438 H 5229.3 Z"
         id="path414" />
    </clipPath>
    <clipPath
       clipPathUnits="userSpaceOnUse"
       id="clipPath434">
      <path
         d="m 4481.84,3536.69 h 262.09 v 878.438 h -262.09 z"
         id="path432" />
    </clipPath>
    <clipPath
       clipPathUnits="userSpaceOnUse"
       id="clipPath440">
      <path
         d="m 4481.84,3536.69 h 262.09 v 878.44 h -262.09 z"
         id="path438" />
    </clipPath>
    <clipPath
       clipPathUnits="userSpaceOnUse"
       id="clipPath444">
      <path
         d="m 4481.84,3536.69 h 262.09 v 878.438 h -262.09 z"
         id="path442" />
    </clipPath>
    <clipPath
       clipPathUnits="userSpaceOnUse"
       id="clipPath462">
      <path
         d="M 3986.84,4793.43 H 6015.09 V 6092.71 H 3986.84 Z"
         id="path460" />
    </clipPath>
    <clipPath
       clipPathUnits="userSpaceOnUse"
       id="clipPath468">
      <path
         d="M 3986.84,4793.43 H 6015.09 V 6092.71 H 3986.84 Z"
         id="path466" />
    </clipPath>
    <clipPath
       clipPathUnits="userSpaceOnUse"
       id="clipPath472">
      <path
         d="M 3986.84,4793.43 H 6015.09 V 6092.71 H 3986.84 Z"
         id="path470" />
    </clipPath>
    <clipPath
       clipPathUnits="userSpaceOnUse"
       id="clipPath490">
      <path
         d="m 4836.97,5366.47 h 292.621 v 96.4414 H 4836.97 Z"
         id="path488" />
    </clipPath>
    <clipPath
       clipPathUnits="userSpaceOnUse"
       id="clipPath496">
      <path
         d="m 4836.97,5366.47 h 292.62 v 96.44 h -292.62 z"
         id="path494" />
    </clipPath>
    <clipPath
       clipPathUnits="userSpaceOnUse"
       id="clipPath500">
      <path
         d="m 4836.97,5366.47 h 292.621 v 96.4414 H 4836.97 Z"
         id="path498" />
    </clipPath>
    <clipPath
       clipPathUnits="userSpaceOnUse"
       id="clipPath548">
      <path
         d="m 4135.96,3782.09 h 255.02 v 558.051 h -255.02 z"
         id="path546" />
    </clipPath>
    <clipPath
       clipPathUnits="userSpaceOnUse"
       id="clipPath554">
      <path
         d="m 4135.96,3782.09 h 255.02 v 558.05 h -255.02 z"
         id="path552" />
    </clipPath>
    <clipPath
       clipPathUnits="userSpaceOnUse"
       id="clipPath558">
      <path
         d="m 4135.96,3782.09 h 255.02 v 558.051 h -255.02 z"
         id="path556" />
    </clipPath>
    <clipPath
       clipPathUnits="userSpaceOnUse"
       id="clipPath576">
      <path
         d="m 4555.96,3692.56 h 860.348 v 732.512 H 4555.96 Z"
         id="path574" />
    </clipPath>
    <clipPath
       clipPathUnits="userSpaceOnUse"
       id="clipPath582">
      <path
         d="m 4555.96,3692.56 h 860.35 v 732.51 h -860.35 z"
         id="path580" />
    </clipPath>
    <clipPath
       clipPathUnits="userSpaceOnUse"
       id="clipPath586">
      <path
         d="m 4555.96,3692.56 h 860.348 v 732.512 H 4555.96 Z"
         id="path584" />
    </clipPath>
    <clipPath
       clipPathUnits="userSpaceOnUse"
       id="clipPath604">
      <path
         d="m 5590.12,3782.09 h 255.008 v 558.051 H 5590.12 Z"
         id="path602" />
    </clipPath>
    <clipPath
       clipPathUnits="userSpaceOnUse"
       id="clipPath610">
      <path
         d="m 5590.12,3782.09 h 255.01 v 558.05 h -255.01 z"
         id="path608" />
    </clipPath>
    <clipPath
       clipPathUnits="userSpaceOnUse"
       id="clipPath614">
      <path
         d="m 5590.12,3782.09 h 255.008 v 558.051 H 5590.12 Z"
         id="path612" />
    </clipPath>
    <clipPath
       clipPathUnits="userSpaceOnUse"
       id="clipPath632">
      <path
         d="m 5825.04,4520.25 h 101.102 v 333.309 H 5825.04 Z"
         id="path630" />
    </clipPath>
    <clipPath
       clipPathUnits="userSpaceOnUse"
       id="clipPath638">
      <path
         d="m 5825.04,4520.25 h 101.1 v 333.31 h -101.1 z"
         id="path636" />
    </clipPath>
    <clipPath
       clipPathUnits="userSpaceOnUse"
       id="clipPath642">
      <path
         d="m 5825.04,4520.25 h 101.102 v 333.309 H 5825.04 Z"
         id="path640" />
    </clipPath>
    <clipPath
       clipPathUnits="userSpaceOnUse"
       id="clipPath660">
      <path
         d="m 4047.99,4520.25 h 101.109 v 333.309 H 4047.99 Z"
         id="path658" />
    </clipPath>
    <clipPath
       clipPathUnits="userSpaceOnUse"
       id="clipPath666">
      <path
         d="m 4047.99,4520.25 h 101.11 v 333.31 h -101.11 z"
         id="path664" />
    </clipPath>
    <clipPath
       clipPathUnits="userSpaceOnUse"
       id="clipPath670">
      <path
         d="m 4047.99,4520.25 h 101.109 v 333.309 H 4047.99 Z"
         id="path668" />
    </clipPath>
  </defs>
  <sodipodi:namedview
     id="namedview50"
     pagecolor="#505050"
     bordercolor="#eeeeee"
     borderopacity="1"
     inkscape:showpageshadow="0"
     inkscape:pageopacity="0"
     inkscape:pagecheckerboard="0"
     inkscape:deskcolor="#505050"
     showgrid="false"
     inkscape:zoom="0.17640201"
     inkscape:cx="-28.344349"
     inkscape:cy="147.39061"
     inkscape:window-width="1309"
     inkscape:window-height="456"
     inkscape:window-x="0"
     inkscape:window-y="38"
     inkscape:window-maximized="0"
     inkscape:current-layer="g56" />
  <g
     id="g56"
     inkscape:groupmode="layer"
     inkscape:label="Page 1"
     transform="matrix(1.3333333,0,0,-1.3333333,-480.99306,815.58121)">
    <g
       id="g58"
       transform="scale(0.1)">
      <path
         d="m 6116.69,4822.59 c -35.32,-7.01 -67.88,-24.46 -95.01,-47.91 -14.66,-12.68 -45.33,-54.89 -67.96,-49.03 -8.64,2.23 -13.33,11.41 -16.4,19.8 -17.16,46.9 -16.85,99.96 0.87,146.65 12.58,33.14 33.42,62.94 41.86,97.66 8.53,35.06 13.64,71.99 17.65,107.87 8.61,77.2 7.46,155.48 -3.29,232.42 -8.2,58.65 -21.98,116.54 -41.28,172.54 -8.29,24.05 -21.22,44.99 -24.33,70.29 -3.64,29.69 -1.61,60 2.95,89.48 9.52,61.41 28.26,122.77 21.16,184.52 -10.42,90.68 -78.32,168.92 -162.14,205.08 -83.81,36.17 -180.7,33.93 -268.21,7.96 -75.13,-22.29 -149.72,-66.53 -180.25,-138.72 -1.55,-3.66 -3.19,-7.64 -6.62,-9.66 -2.94,-1.75 -6.58,-1.66 -10,-1.52 -194.19,7.97 -388.09,6.03 -582.43,5.36 -21.36,-0.07 -43.3,-0.06 -63.27,7.57 -31.13,11.86 -52.46,39.96 -75.66,63.87 -81.82,84.31 -207.71,125 -322.37,99.41 -114.65,-25.57 -212.81,-118.74 -239.42,-233.16 -16.37,-70.41 -6.88,-143.89 -8.97,-216.14 -3.02,-104.32 -30.27,-206.21 -47.53,-309.14 -17.25,-102.95 -24.04,-211.43 12.44,-309.23 13.68,-36.68 33.19,-71.06 45.56,-108.21 14.59,-43.77 15.57,-97.37 14.48,-143.64 -0.12,-5.16 -14.68,-73.98 -14.56,-74.12 -0.47,0.54 -65.74,74.55 -65.74,74.55 l -67.69,46.84 c 0,0 -45.7,17.52 -50.48,18.65 -4.78,1.13 -61.65,-6.66 -66.65,-6.66 -5,0 -45.06,-16.25 -45.06,-16.25 l -59.88,-35.02 -55.24,-82.11 c 0,0 13.93,-142.87 16.43,-150.37 12.94,-38.82 8.56,-81.92 26.26,-119.57 21.59,-45.95 42.12,-93.49 61.58,-140.45 18.11,-43.72 41.65,-87.04 64.94,-128.43 25.98,-46.16 57.28,-88.31 86.03,-132.23 24.79,-37.9 58,-67.13 87.44,-101.24 14.52,-16.81 30.73,-33.83 45.03,-50.55 7.46,-8.71 14.36,-15.64 2.44,-22.29 -9.28,-5.17 -23.11,-3.99 -33.66,-3.99 -20.89,0 -40.56,1.99 -57.81,-9.68 -15.25,-10.34 -27.8,-29.96 -13.22,-48.79 6.67,-8.61 17.25,-8.68 24.44,-15.62 8.69,-8.39 1.44,-13.14 -2.53,-23.38 -6.59,-17.01 -6.87,-46.8 10.31,-57.8 17.45,-11.18 48.2,3.43 63.75,13.72 18.81,12.43 32.65,23.13 54.96,31.21 29.19,10.55 58.22,9.51 88.12,14.87 23.83,4.29 50.42,6.55 66.92,26.45 7.37,8.88 3.34,16.69 8.75,26.25 5.02,8.84 17.93,12.5 27.47,14.05 23.43,3.83 36.71,-4.77 56.91,-15.37 27.94,-14.66 62.88,-16.17 86.9,-38.33 21.93,-20.25 34.08,-49.8 46.57,-76.26 16.95,-35.95 35.83,-74.09 58.4,-106.99 9.99,-14.57 21.01,-29.35 33.41,-40.92 14.99,-14 36.78,-9.64 51.53,3.09 8.44,7.29 9.45,18.11 21,18.57 8.62,0.34 20.77,-8.3 29.06,-10.07 18.16,-3.87 46,-5.62 60.09,9.66 9.69,10.5 3.69,23.51 -7.41,29.3 -4.85,15.99 25.29,16.22 35.1,21.98 15.01,8.8 19.29,28.64 6.16,41.84 -12.97,13.04 -35,10.34 -49.18,22.02 -13.43,11.08 -19.13,30.06 2.36,35.98 16.24,4.48 35.79,5.24 52.88,4.64 35.05,-1.25 68.08,-10.41 103.42,-11.67 65.91,-2.34 133.11,-1.42 198.58,1.58 90.05,4.12 179.33,6.45 269.75,15.5 9.9,0.99 39.06,5.94 38.41,-12.08 -0.47,-13 -32.16,-24.09 -41.91,-27.87 -14.28,-5.53 -29.03,-8.92 -43.58,-14.17 -9.61,-3.48 -32.37,-8.73 -37.68,-16.61 -18.43,-27.33 34.81,-38.5 49.45,-41.64 -4.22,-7.32 -16.69,-9.1 -21.11,-18.05 -14.84,-30.02 38.49,-54.02 61.56,-50.92 15.23,2.04 26.31,19.62 40.89,20.51 18.23,1.12 10.29,-13.17 23.45,-19.93 29.66,-15.24 57.5,-11.16 77.15,18.63 14.47,21.93 31,42.94 43.28,66.72 10.53,20.4 20.43,41.12 29.28,62.31 8.05,19.28 13.1,40.72 26.28,57.34 5.52,6.96 11.77,11.59 19.03,17.16 15.71,12.05 29.07,20.47 47.49,27.77 29.65,11.76 65.26,24.37 89.69,46.16 5.1,-11.42 -0.36,-26.41 1.54,-38.66 1.38,-8.89 6.14,-20.47 11.31,-27.52 13.56,-18.53 38.11,-23.49 60.25,-23.73 22.37,-0.26 42.42,8.85 64.72,7.5 22.55,-1.37 38.29,-13.3 56.32,-25.97 16.17,-11.36 33.21,-18.69 52.43,-21.55 17.58,-2.64 57.52,-9.63 72.59,3.43 6.23,5.41 9.86,18.55 8.66,26.59 -1.34,8.94 -15.95,17.43 -15.05,25 1.11,9.45 21.15,10.58 26.36,17.44 6.79,8.95 3.72,21.04 -0.03,30.06 -7.27,17.52 -17.02,23.49 -35.09,26.18 -13.23,1.98 -31.5,-1.95 -42.7,5.11 -22.03,13.92 0.9,45.87 12.26,63.66 8.89,13.96 19.52,26.71 29.71,40.05 16.48,21.57 32.89,40.34 47,63.24 18.32,29.77 44.07,53.94 66.3,81.35 25.24,31.15 48.05,62.8 68.83,96.8 32.8,53.64 55.8,109.98 76.58,169.91 10.31,29.73 21.82,58.63 32.5,87.44 24.13,65.08 28.96,134.6 18.74,203.01 -8.05,53.87 -20.77,111 -61.74,149.59 -39.66,37.34 -101.29,39.27 -152.88,29.03"
         style="fill:#80b75c;fill-opacity:1;fill-rule:nonzero;stroke:none"
         id="path342" />
      <g
         id="g344">
        <g
           id="g346"
           clip-path="url(#clipPath350)">
          <g
             id="g352" />
          <g
             id="g370">
            <g
               clip-path="url(#clipPath356)"
               opacity="0.199997"
               id="g368">
              <g
                 id="g366">
                <g
                   clip-path="url(#clipPath360)"
                   id="g364">
                  <path
                     d="m 5828.46,4513.47 c 75,65 202.5,257.5 327.5,182.5 125,-77.5 72.5,-290 15,-390 -67.5,-117.5 -135,-230 -222.5,-332.5 -47.5,-57.5 -95,-102.5 -42.5,-167.5 25,-30 17.5,-62.5 40,-90 20,-22.5 75,-42.5 97.5,-20 10,10 10,32.5 10,45 0,7.5 -12.5,15 -12.5,22.5 2.5,10 15,17.5 15,25 5,47.5 -20,35 -55,62.5 -72.5,52.5 52.5,110 92.5,150 95,100 147.5,250 202.5,372.5 55,125 70,272.5 -7.5,395 -40,62.5 -127.5,60 -195,55 -75,-5 -112.5,-65 -150,-125 -27.5,-45 -85,-105 -95,-155"
                     style="fill:#ffffff;fill-opacity:1;fill-rule:nonzero;stroke:none"
                     id="path362" />
                </g>
              </g>
            </g>
          </g>
        </g>
      </g>
      <g
         id="g372">
        <g
           id="g374"
           clip-path="url(#clipPath378)">
          <g
             id="g380" />
          <g
             id="g398">
            <g
               clip-path="url(#clipPath384)"
               opacity="0.199997"
               id="g396">
              <g
                 id="g394">
                <g
                   clip-path="url(#clipPath388)"
                   id="g392">
                  <path
                     d="m 4154.1,4513.47 c -75,65 -202.5,257.5 -327.5,182.5 -125,-77.5 -72.5,-290 -15,-390 67.5,-117.5 135,-230 222.5,-332.5 47.5,-57.5 95,-102.5 42.5,-167.5 -25,-30 -17.5,-62.5 -40,-90 -20,-22.5 -75,-42.5 -97.5,-20 -10,10 -10,32.5 -10,45 0,7.5 12.5,15 12.5,22.5 -2.5,10 -15,17.5 -15,25 -5,47.5 20,35 55,62.5 72.5,52.5 -52.5,110 -92.5,150 -95,100 -147.5,250 -202.5,372.5 -55,125 -70,272.5 7.5,395 40,62.5 127.5,60 195,55 75,-5 112.5,-65 150,-125 27.5,-45 85,-105 95,-155"
                     style="fill:#ffffff;fill-opacity:1;fill-rule:nonzero;stroke:none"
                     id="path390" />
                </g>
              </g>
            </g>
          </g>
        </g>
      </g>
      <g
         id="g400">
        <g
           id="g402"
           clip-path="url(#clipPath406)">
          <g
             id="g408" />
          <g
             id="g426">
            <g
               clip-path="url(#clipPath412)"
               opacity="0.199997"
               id="g424">
              <g
                 id="g422">
                <g
                   clip-path="url(#clipPath416)"
                   id="g420">
                  <path
                     d="m 5412.63,4415.13 c 10,-43.33 26.67,-85 35,-130 10,-46.67 13.33,-96.67 20,-143.33 11.67,-91.67 15,-191.67 -5,-281.67 -15,-61.67 -36.67,-116.67 -65,-171.67 -6.67,-11.66 -21.67,-33.33 -10,-45 5,-5 18.33,1.67 25,-1.66 11.67,-8.34 1.67,-10 8.33,-21.67 6.67,-10 -5,-11.67 8.34,-16.67 5,-3.33 18.33,3.34 23.33,6.67 16.67,6.67 25,16.67 36.67,30 20,-66.67 -110,-156.67 -115,-63.33 -25,-8.34 -40,-26.67 -70,-25 -20,1.66 -58.34,26.66 -25,45 -11.67,18.33 -50,16.66 -50,43.33 0,28.33 38.33,31.67 60,35 50,8.33 80,28.33 98.33,78.33 31.48,85.87 29.92,177.82 36.26,267.82 2.65,37.5 0.71,66.19 -7.45,102.22 -9.89,43.69 -5.48,90.38 -5.48,134.91 0,46.09 -9.77,93.36 -7.12,137.17 16.67,0.18 20.46,-20.86 19.62,-34.61"
                     style="fill:#ffffff;fill-opacity:1;fill-rule:nonzero;stroke:none"
                     id="path418" />
                </g>
              </g>
            </g>
          </g>
        </g>
      </g>
      <g
         id="g428">
        <g
           id="g430"
           clip-path="url(#clipPath434)">
          <g
             id="g436" />
          <g
             id="g454">
            <g
               clip-path="url(#clipPath440)"
               opacity="0.199997"
               id="g452">
              <g
                 id="g450">
                <g
                   clip-path="url(#clipPath444)"
                   id="g448">
                  <path
                     d="m 4560.6,4415.13 c -10,-43.33 -26.67,-85 -35,-130 -10,-46.67 -13.33,-96.67 -20,-143.33 -11.67,-91.67 -15,-191.67 5,-281.67 15,-61.67 36.67,-116.67 65,-171.67 6.67,-11.66 21.67,-33.33 10,-45 -5,-5 -18.33,1.67 -25,-1.66 -11.67,-8.34 -1.67,-10 -8.33,-21.67 -6.67,-10 5,-11.67 -8.34,-16.67 -5,-3.33 -18.33,3.34 -23.33,6.67 -16.67,6.67 -25,16.67 -36.67,30 -20,-66.67 110,-156.67 115,-63.33 25,-8.34 40,-26.67 70,-25 20,1.66 58.34,26.66 25,45 11.67,18.33 50,16.66 50,43.33 0,28.33 -38.33,31.67 -60,35 -50,8.33 -80,28.33 -98.33,78.33 -31.48,85.87 -29.92,177.82 -36.26,267.82 -2.65,37.5 -0.71,66.19 7.45,102.22 9.89,43.69 5.48,90.38 5.48,134.91 0,46.09 9.77,93.36 7.12,137.17 -16.67,0.18 -20.46,-20.86 -19.62,-34.61"
                     style="fill:#ffffff;fill-opacity:1;fill-rule:nonzero;stroke:none"
                     id="path446" />
                </g>
              </g>
            </g>
          </g>
        </g>
      </g>
      <g
         id="g456">
        <g
           id="g458"
           clip-path="url(#clipPath462)">
          <g
             id="g464" />
          <g
             id="g482">
            <g
               clip-path="url(#clipPath468)"
               opacity="0.199997"
               id="g480">
              <g
                 id="g478">
                <g
                   clip-path="url(#clipPath472)"
                   id="g476">
                  <path
                     d="m 5413.16,6015.5 c 74.39,66.31 240.39,103.45 347.48,55.45 84.7,-38 151.47,-116.7 173.47,-207.07 27.98,-114.86 -7.31,-238.52 23.5,-352.66 9.37,-34.68 24.62,-67.5 35.41,-101.76 34.34,-109.07 22,-226.71 7.14,-340.08 -5.52,-42.09 -11.43,-84.54 -26.39,-124.25 -24.32,-64.47 -72.82,-119.5 -133.75,-151.7 66.19,87.64 100.23,197.13 106.27,306.79 6.03,109.66 -14.84,219.6 -50.27,323.55 -21.48,63.03 -48.7,126.48 -46.41,193.03 0.91,26.74 6.6,53.04 11.23,79.36 12.36,70.45 21.07,174.32 -25.16,235.02 -24.25,31.82 -61.47,51.37 -99.54,63.61 -70.96,22.78 -150.69,22.59 -218.19,-9.04 -42.81,-20.05 -79.77,-53.59 -103.34,-94.3 -24.36,-42.11 -72.18,-64.75 -120.32,-57.82 -62.47,9 -158.11,18.25 -293.33,20.05 -122.51,1.61 -223.71,-9.22 -291.96,-19.82 -48.61,-7.55 -97.16,15.36 -121.89,57.91 -23.56,40.59 -60.45,73.98 -103.15,93.98 -67.48,31.63 -147.21,31.82 -218.16,9.04 -38.09,-12.24 -75.32,-31.79 -99.55,-63.61 -46.25,-60.7 -37.54,-164.57 -25.16,-235.02 4.62,-26.32 10.32,-52.62 11.23,-79.36 2.29,-66.55 -24.93,-130 -46.41,-193.03 -35.43,-103.95 -56.3,-213.89 -50.27,-323.55 6.04,-109.66 40.07,-219.15 106.27,-306.79 -60.93,32.2 -109.43,87.23 -133.75,151.7 -14.96,39.71 -20.87,82.16 -26.39,124.25 -14.86,113.37 -27.2,231.01 7.14,340.08 10.79,34.26 26.04,67.08 35.41,101.76 30.79,114.14 -4.48,237.8 23.48,352.66 22.02,90.37 88.77,169.07 173.5,207.07 88.18,39.52 216.31,21.32 300.34,-23.36 30.81,-16.39 60.88,-42.03 81.82,-69.91 15.31,-20.37 13.38,-58.3 38.13,-70.64 6.46,-3.23 13.87,-3.86 21.09,-4.29 63.77,-3.91 127.14,6.02 190.52,9.86 67.28,4.05 134.62,10.54 202.1,8.59 83.5,-2.41 166.93,-14.39 250.27,-7.4 8.32,0.7 16.56,2.79 23.89,6.77 18.02,9.74 12.97,19.82 17.74,33.63 5.1,14.76 17.78,28.68 26.78,40.1 5.91,7.5 12.04,14.84 19.18,21.2"
                     style="fill:#ffffff;fill-opacity:1;fill-rule:nonzero;stroke:none"
                     id="path474" />
                </g>
              </g>
            </g>
          </g>
        </g>
      </g>
      <g
         id="g484">
        <g
           id="g486"
           clip-path="url(#clipPath490)">
          <g
             id="g492" />
          <g
             id="g510">
            <g
               clip-path="url(#clipPath496)"
               opacity="0.199997"
               id="g508">
              <g
                 id="g506">
                <g
                   clip-path="url(#clipPath500)"
                   id="g504">
                  <path
                     d="m 4861.91,5420.31 c 0,0 123.86,-121.12 267.68,0 l -28.11,40.8 -66.84,-40.8 c 0,0 -48.26,-1.02 -49.84,0.36 -1.6,1.38 -34.07,5.89 -34.07,5.89 0,0 -17.3,13.73 -28.14,15.05 -10.84,1.32 -39.14,21.31 -39.14,21.31 l -46.49,-42.61"
                     style="fill:#414141;fill-opacity:1;fill-rule:nonzero;stroke:none"
                     id="path502" />
                </g>
              </g>
            </g>
          </g>
        </g>
      </g>
      <path
         d="m 5325.38,3617.22 c -0.96,4.31 -15.87,3.41 -40,4.22 -6.12,0.24 -12.12,0.99 -19.88,1.92 -7.22,0.84 -13.76,2.49 -16.56,5.15 -1.41,1.12 -2.88,3.28 -2.48,3.62 -0.04,0.79 0.08,2.17 0.6,2.79 0.14,0.14 0.25,0.24 0.36,0.28 0.18,0.01 0.25,-0.08 -0.31,0.24 -0.34,0.2 -0.56,0.38 -0.62,0.43 l -0.03,0.03 -0.01,0.01 c 2.5,-2.44 0.73,-0.65 1.3,-1.19 l 0.22,0.14 0.43,0.27 0.83,0.58 c 2.29,1.44 4.96,2.59 8.49,3.52 7.09,1.91 17.41,2.23 30.04,2.63 6.37,0.26 13.41,0.52 21.63,1.84 8.33,1.34 17.47,4.16 25.42,8.12 16.2,7.96 29.29,19.77 40.12,32.4 10.9,12.74 19.62,26.21 27.75,41.55 31.29,61.28 36.84,132.5 41.8,201.41 1.04,16.55 3,34.01 3.98,51.45 1.09,17.33 1.73,34.43 1.99,51.21 0.46,33.57 -0.59,65.92 -2.76,96.57 -1.09,15.32 -2.41,30.24 -3.98,44.69 -1.54,13.67 -2.53,26.89 -3.39,40.07 -1.66,26.25 -2.81,51.56 -5.29,74.93 -1.19,11.59 -2.82,23.1 -4.56,33.26 -1.64,9.39 -2.75,18.62 -3.73,27.47 -1.91,17.69 -3.64,33.85 -6.47,46.92 -5.47,26.46 -14.48,39.39 -18.12,38.13 -4.21,-1.3 -3.25,-15.3 -5.17,-39.84 -1.03,-12.61 -2.3,-28.02 -3.78,-45.9 -0.59,-9.26 -1.02,-19.39 -0.72,-30.43 0.26,-10.29 0.35,-20.41 0.18,-31.6 -0.64,-22.65 -1.33,-47.48 -2.07,-74.12 -0.22,-13.61 -0.19,-28.1 0.52,-42.89 0.6,-14.02 1.05,-28.43 1.36,-43.21 0.6,-29.54 0.44,-60.5 -0.78,-92.49 -0.64,-16 -1.54,-32.24 -2.77,-48.69 -1.12,-16.38 -3.12,-33.07 -4.28,-51.22 -2.43,-34.81 -4.67,-67.7 -9.22,-98.44 -4.58,-30.62 -11.4,-59.09 -22.34,-82.87 -5.35,-11.57 -12.03,-23.33 -19.16,-32.76 -7.08,-9.52 -14.7,-17 -22.28,-21.58 -3.9,-2.34 -7.35,-3.82 -11.69,-5 -4.47,-1.2 -10.1,-2.04 -16.11,-2.85 -12.08,-1.74 -25.9,-3.01 -40.38,-8.81 -7.19,-2.92 -14.4,-7.2 -20.38,-12.76 -1.53,-1.51 -2.78,-2.66 -4.42,-4.5 -1.85,-2.11 -3.42,-4.39 -4.73,-6.74 -2.59,-4.73 -4.02,-9.68 -4.58,-14.44 -1.06,-9.55 1.13,-18.49 5.78,-26.13 5.18,-8.08 11.17,-12.22 17.62,-15.47 13.29,-6.11 24.35,-4.92 32.44,-4.37 7.75,0.75 15.94,1.8 22.5,3.43 26.55,6.76 38.56,15.31 37.69,19.02"
         style="fill:#414141;fill-opacity:1;fill-rule:nonzero;stroke:none"
         id="path512" />
      <path
         d="m 5647.65,4174.61 c -4.13,0.3 -9.1,-10.86 -14.53,-31.13 -2.77,-10.14 -5.43,-22.59 -8.58,-37 -3.36,-14.35 -6.87,-30.71 -10.44,-48.78 -15.18,-72.13 -36.18,-171.34 -71.77,-276.18 -17.64,-52.47 -37.96,-100.86 -58.8,-143.79 -5.28,-10.71 -10.53,-21.16 -15.81,-31.32 -2.53,-4.86 -5.03,-9.64 -7.49,-14.36 -1.87,-3.44 -4.14,-6.87 -6.75,-10.14 -10.5,-13.14 -25.02,-23.23 -37.79,-27.86 -3.3,-1.23 -5.96,-1.87 -8.76,-2.34 -2.56,-0.5 -3.88,-0.62 -5.51,-0.64 -3.15,0.09 -6.75,1.23 -8.92,3.84 -2.25,2.55 -3.05,5.98 -2.95,9.25 -0.07,1.73 0.34,3.27 0.59,5.04 0.93,2.35 1.17,3.85 2.49,6.84 4.64,12.01 4.83,18.05 6.63,22.53 1.5,4.48 3.32,7.32 2.21,9.14 -0.95,1.65 -4.94,2.63 -11.05,-0.89 -6.25,-3.27 -12.17,-12.5 -17.69,-18.57 -1.41,-1.43 -3.84,-4.73 -5.83,-7.36 -1.99,-3.53 -4.44,-7.43 -5.78,-11.89 -3.18,-8.73 -4.07,-19.66 0.27,-30.11 4.16,-10.5 13.96,-19.25 26.65,-23.91 6.35,-2.27 13.69,-3.5 19.97,-3.59 6.03,-0.21 12.43,0.4 18.12,1.54 23.19,4.8 45.06,16.48 64.17,35.53 4.76,4.81 9.27,10.25 13.43,16.36 3.22,5.07 6.49,10.2 9.8,15.43 6.29,10.07 12.58,20.64 18.88,31.64 24.92,44.13 48.16,95.09 66.7,150.25 37.47,110.41 52.38,214.75 57.03,289.88 0.94,18.84 1.52,35.89 1.74,50.86 0.01,14.98 -0.72,27.92 -1.51,38.51 -1.69,21.15 -4.59,32.91 -8.72,33.22"
         style="fill:#414141;fill-opacity:1;fill-rule:nonzero;stroke:none"
         id="path514" />
      <path
         d="m 5400.11,3616.54 c -6.42,1.88 -15.32,-11.63 -33.18,-26.87 -2.09,-2 -4.86,-3.77 -7.32,-5.83 -2.54,-2.05 -5.29,-4.35 -7.16,-5.21 -4.41,-2.47 -10.49,-4.89 -17.17,-6.69 -13.15,-3.74 -30.25,-4.87 -41.31,-0.96 -1.3,0.5 -2.36,1.12 -3.62,1.51 -0.84,0.7 -1.86,1.18 -2.71,1.75 -0.51,0.64 -1.64,1.43 -1.94,1.64 -0.16,0.12 -0.46,0.43 -0.55,0.44 -0.34,0 -1.15,0.57 -1.02,1.42 0.14,0.43 0.02,0.78 0.82,1.39 2.07,1.03 5.92,2.34 9.28,3.49 3.31,1.11 7.88,2.51 11.98,4.36 4.21,1.62 7.69,3.79 11.16,5.71 13.59,8.4 22,19.3 25.09,27.78 1.72,4.16 2.06,7.77 1.77,10.35 -0.26,2.56 -1.14,4.1 -2.55,4.74 -3.04,1.4 -7,-1.2 -12.99,-4.27 -5.87,-3.2 -13.83,-6.97 -24.37,-9.58 -2.68,-0.46 -5.49,-1.31 -8.26,-1.53 -2.76,-0.46 -5.53,-0.62 -9.83,-1.11 -4.22,-0.56 -8.23,-1 -14.05,-2.48 -6.97,-2.07 -15.05,-5.18 -20.93,-10.46 -5.98,-5.15 -10.68,-12.41 -11.75,-20.76 -1.21,-8.24 0.26,-17.11 4.44,-25.48 1.7,-4.29 4.4,-7.9 7.02,-11.68 2.69,-3.55 5.45,-5.83 8.39,-8.67 3.01,-2.42 6.28,-4.47 9.56,-6.54 3.31,-1.57 6.75,-3.25 10.16,-4.49 13.75,-4.68 26.61,-5.01 38.25,-3.88 11.67,1.21 22.27,4.21 32.01,8.3 9.72,4.16 18.61,9.37 26.41,16.55 4.28,3.93 6.58,7.2 8.99,10.4 2.37,3.29 4.82,6.15 6.67,9.46 7.78,12.81 11.64,24.55 12.38,32.96 0.58,8.56 -0.72,13.3 -3.67,14.24"
         style="fill:#414141;fill-opacity:1;fill-rule:nonzero;stroke:none"
         id="path516" />
      <path
         d="m 5944.61,3753.04 c 18.5,0.1 37.86,2.22 56.16,-1.11 6.64,-1.2 13.37,-2.95 18.79,-7.17 -2.5,1.94 1.84,-2.07 2.4,-2.78 -2.39,3.05 1.98,-3.52 2.52,-4.8 -1.7,3.99 0.34,-2.45 0.6,-3.78 0.58,-2.95 -0.16,0.68 -0.18,1.06 0.07,-1.49 0.14,-3 0.03,-4.49 -0.36,-4.8 0.93,2.44 -0.41,-2.17 -0.42,-1.44 -0.79,-2.87 -1.33,-4.26 0.89,2.29 0.75,1.87 -0.27,-0.08 -0.51,-0.99 -1.15,-1.92 -1.77,-2.83 -2.18,-3.22 2.17,2.85 -0.3,-0.17 -0.62,-0.76 -1.6,-1.81 -2.43,-2.35 0.87,0.56 3.62,2.49 -0.5,-0.15 -1.67,-1.06 -5.89,-2.4 -9.16,-2.4 -32.34,0.05 -61.25,27.04 -89.28,39.99 -30.46,14.06 -61.39,15.11 -94.36,16.32 -14.38,0.53 -28.76,0.93 -41.9,3.92 -3.27,0.75 -6.51,1.63 -9.67,2.71 -1.27,0.43 -0.67,0.31 -3.81,1.69 -3.47,1.51 -4.45,2.33 -6.16,5.98 -11.65,24.87 -4.75,58.17 -4.99,84.98 -0.67,77.35 11.91,153.89 30.4,228.82 21.13,85.65 49.9,169.41 83.99,250.73 5.22,12.46 -5.63,27.51 -17.46,30.76 -14.42,3.95 -25.51,-4.96 -30.75,-17.46 -34.37,-82 -63.35,-166.47 -84.52,-252.85 -10.91,-44.58 -19.44,-89.65 -25.22,-135.19 -5.19,-40.93 -5.38,-81.42 -6.66,-122.52 -1.07,-34.34 -3.97,-77.48 21.09,-104.78 23.83,-25.96 66.61,-25.8 99.06,-26.91 8.89,-0.31 17.78,-0.54 26.67,-1.06 8.09,-0.48 13.91,-0.91 20.04,-2.18 17.87,-3.71 33.49,-13.37 49.08,-22.42 32.64,-18.96 73.56,-41.19 111.66,-24.74 34.64,14.96 48.35,57.82 31.69,91.06 -22.84,45.56 -80.16,40.86 -123.05,40.63 -32.16,-0.18 -32.23,-50.18 0,-50"
         style="fill:#414141;fill-opacity:1;fill-rule:nonzero;stroke:none"
         id="path518" />
      <path
         d="m 4181.86,4516.01 c -36.36,61.65 -70.04,125.11 -111.97,183.27 -40.94,56.78 -90.03,110.53 -154.75,140.11 -57.84,26.43 -122.32,32.99 -180.72,4.55 -54.46,-26.52 -90.69,-80.09 -109.44,-136.21 -44.38,-132.83 2.89,-281.76 59.53,-403.16 61.12,-130.97 145.43,-251.01 237.2,-362.18 22.66,-27.44 47.02,-51.92 72.45,-76.77 6.7,-6.54 13.52,-12.96 19.82,-19.88 1.95,-2.14 3.84,-4.32 5.7,-6.54 1.87,-2.23 0.09,0 -0.23,0.42 0.87,-1.17 1.78,-2.37 2.56,-3.61 0.87,-1.38 1.78,-4.02 2.97,-5.08 -2.68,2.39 -1.16,4.01 -0.87,1.48 0.01,3.2 0.01,6.4 0.02,9.6 4.33,4.56 8.66,9.13 13,13.69 -1.29,2.17 -14.62,3.87 -18.01,4.57 -10.94,2.22 -22.48,3.39 -33.64,3.78 -18.84,0.64 -38.27,-2.24 -56.12,-8.3 -18.58,-6.31 -35.4,-17.37 -42.13,-36.66 -4.64,-13.29 -6.7,-31.75 -2.57,-45.49 5.02,-16.69 18.54,-27.34 32.68,-36.31 27.25,-17.3 52.36,25.96 25.23,43.17 -2.57,1.64 -5.09,3.34 -7.52,5.14 -1.09,0.8 -1.84,2.01 -2.91,2.81 0.23,-0.17 2.02,-2.72 0.4,-0.39 -1.75,2.52 0.57,-0.76 0.34,-1.13 -0.56,-0.86 0.51,7.13 -0.18,-0.26 0.28,2.89 0.07,5.84 0.37,8.75 0.28,2.63 0.37,6.83 2.94,9.12 2.72,2.42 9.68,4.08 14.29,5.35 16.84,4.61 33.97,5.42 51.29,2.91 16.87,-2.45 32.95,-10.21 50.23,-4.8 16.48,5.16 24.66,22.13 20.31,38.45 -3.15,11.78 -11.69,21.96 -19.47,30.96 -16.45,19 -35.9,35.48 -53.87,52.96 -22.74,22.1 -42.37,47.85 -62.17,72.55 -19.89,24.82 -39.16,50.11 -57.83,75.85 -41.24,56.85 -79.69,115.84 -113.58,177.4 -61.7,112.14 -117.01,243.03 -105.69,373.84 4.62,53.36 24.89,108.54 63.05,145.09 35.07,33.59 82.78,45.11 130.84,33.52 61.89,-14.92 111.02,-57.25 150.73,-105.23 43.14,-52.1 76.45,-111.86 110.03,-170.31 8.11,-14.12 16.24,-28.23 24.52,-42.26 16.33,-27.7 59.57,-2.57 43.17,25.23"
         style="fill:#414141;fill-opacity:1;fill-rule:nonzero;stroke:none"
         id="path520" />
      <path
         d="m 5853.26,4490.78 c 34.43,58.38 66.45,118.32 105.35,173.94 36.47,52.14 80.24,101.12 138.4,129.15 25.26,12.16 52.4,19.36 79.5,19.22 23.02,-0.11 45.55,-5.97 65.55,-17.52 43.71,-25.21 70.77,-73.15 83.2,-123.66 14.55,-59.08 9.17,-121.8 -4.21,-180.59 -15.03,-66.02 -40.23,-129.32 -70.45,-189.76 -60.03,-120.08 -138.26,-231.17 -224.2,-334.02 -20.61,-24.66 -43.27,-46.49 -66.33,-68.82 -15.19,-14.7 -34.2,-31.33 -40.25,-52.31 -4.72,-16.35 4.12,-33.2 20.31,-38.44 17.18,-5.57 33.43,2.35 50.23,4.79 17.29,2.51 34.45,1.69 51.28,-2.91 4.66,-1.28 11.21,-2.54 14.41,-5.5 2.15,-1.97 2.53,-6.2 2.82,-8.97 0.3,-2.92 0.1,-5.86 0.37,-8.75 -0.03,0.35 0.8,4.08 0.09,1.29 -0.71,-2.82 0.33,0.86 0.64,1.05 -2.97,-1.81 1.28,0.33 -2.02,-2.42 -2.75,-2.3 -5.5,-4.12 -8.58,-6.08 -27.1,-17.2 -2.04,-60.48 25.23,-43.18 14.13,8.98 27.67,19.62 32.68,36.31 4.4,14.67 1.98,34.6 -3.82,48.47 -14.81,35.44 -65.28,43.5 -99.11,41.9 -9.99,-0.47 -20.14,-1.6 -29.97,-3.41 -3.18,-0.6 -18.23,-2.64 -19.56,-4.86 2.17,-2.28 4.33,-4.56 6.5,-6.84 5.43,-2.58 7.6,-6.46 6.51,-11.64 0.78,-3.89 0.16,-4.9 -0.23,-4.84 0.45,-0.07 -1.74,-2.38 0.23,0.2 0.77,1 1.45,2.39 2.11,3.43 0.65,1.04 3.9,5.21 1.55,2.26 2.05,2.58 4.26,5.04 6.47,7.47 19.41,21.29 42.15,39.35 61.63,60.54 45.59,49.58 86.5,104.77 125.59,159.51 43.24,60.55 83.28,123.54 117.82,189.48 63.95,122.11 118.65,266.14 95.36,406.19 -9.91,59.59 -37.39,120.67 -85.31,159.22 -47.89,38.52 -108.23,50.51 -167.81,36.12 -142.85,-34.52 -222.22,-179.44 -289.71,-296.91 -8.43,-14.66 -16.85,-29.32 -25.44,-43.88 -16.39,-27.77 26.82,-52.95 43.17,-25.23"
         style="fill:#414141;fill-opacity:1;fill-rule:nonzero;stroke:none"
         id="path522" />
      <path
         d="m 4654.55,3617.22 c -0.87,-3.71 11.15,-12.26 37.7,-19.02 6.55,-1.63 14.75,-2.68 22.5,-3.43 8.09,-0.55 19.14,-1.74 32.44,4.37 6.45,3.25 12.44,7.39 17.61,15.47 4.66,7.64 6.84,16.58 5.79,26.13 -0.56,4.76 -1.99,9.71 -4.58,14.44 -1.31,2.35 -2.89,4.63 -4.73,6.74 -1.65,1.84 -2.89,2.99 -4.43,4.49 -5.97,5.56 -13.18,9.85 -20.37,12.77 -14.48,5.8 -28.3,7.07 -40.38,8.81 -6.01,0.81 -11.64,1.65 -16.11,2.85 -4.35,1.18 -7.79,2.66 -11.69,5 -7.59,4.58 -15.2,12.06 -22.28,21.58 -7.13,9.43 -13.81,21.19 -19.16,32.76 -10.94,23.78 -17.76,52.25 -22.34,82.87 -4.54,30.74 -6.79,63.63 -9.22,98.44 -1.16,18.15 -3.16,34.84 -4.28,51.22 -1.23,16.45 -2.13,32.69 -2.77,48.69 -1.22,31.99 -1.38,62.95 -0.79,92.49 0.32,14.78 0.77,29.19 1.37,43.21 0.71,14.79 0.74,29.28 0.52,42.89 -0.74,26.65 -1.43,51.47 -2.07,74.12 -0.17,11.19 -0.08,21.31 0.18,31.6 0.3,11.04 -0.13,21.17 -0.72,30.43 -1.48,17.88 -2.75,33.29 -3.78,45.9 -1.92,24.54 -0.96,38.54 -5.17,39.84 -3.65,1.26 -12.65,-11.67 -18.12,-38.13 -2.82,-13.07 -4.56,-29.23 -6.47,-46.92 -0.99,-8.85 -2.09,-18.08 -3.74,-27.47 -1.73,-10.16 -3.36,-21.67 -4.55,-33.26 -2.49,-23.37 -3.63,-48.68 -5.3,-74.93 -0.85,-13.18 -1.84,-26.4 -3.38,-40.07 -1.57,-14.45 -2.89,-29.37 -3.98,-44.69 -2.17,-30.65 -3.22,-62.99 -2.76,-96.56 0.26,-16.79 0.9,-33.89 1.97,-51.22 1,-17.44 2.96,-34.9 4,-51.45 4.96,-68.91 10.5,-140.13 41.8,-201.41 8.13,-15.34 16.85,-28.81 27.75,-41.55 10.83,-12.63 23.92,-24.43 40.12,-32.4 7.95,-3.96 17.08,-6.78 25.42,-8.12 8.22,-1.32 15.25,-1.58 21.63,-1.84 12.62,-0.4 22.95,-0.72 30.03,-2.63 3.53,-0.93 6.2,-2.08 8.5,-3.52 l 0.83,-0.58 0.42,-0.27 0.23,-0.14 c 0.57,0.54 -1.2,-1.25 1.3,1.19 l -0.01,-0.01 -0.03,-0.03 c -0.07,-0.06 -0.28,-0.23 -0.62,-0.43 -0.56,-0.32 -0.49,-0.23 -0.31,-0.25 0.11,-0.04 0.22,-0.13 0.36,-0.27 0.51,-0.62 0.64,-2 0.6,-2.79 0.4,-0.34 -1.07,-2.5 -2.48,-3.62 -2.8,-2.66 -9.34,-4.31 -16.56,-5.15 -7.76,-0.93 -13.76,-1.68 -19.89,-1.92 -24.12,-0.81 -39.03,0.09 -40,-4.22"
         style="fill:#414141;fill-opacity:1;fill-rule:nonzero;stroke:none"
         id="path524" />
      <path
         d="m 4332.28,4174.61 c -4.13,-0.31 -7.03,-12.07 -8.73,-33.22 -0.79,-10.59 -1.51,-23.53 -1.51,-38.51 0.23,-14.97 0.81,-32.02 1.75,-50.86 4.65,-75.13 19.56,-179.47 57.03,-289.88 18.54,-55.16 41.78,-106.12 66.7,-150.25 6.3,-11 12.59,-21.57 18.88,-31.64 3.31,-5.23 6.58,-10.36 9.8,-15.43 4.16,-6.11 8.67,-11.55 13.43,-16.36 19.11,-19.05 40.98,-30.73 64.17,-35.53 5.69,-1.14 12.09,-1.75 18.12,-1.54 6.28,0.09 13.62,1.32 19.97,3.59 12.68,4.66 22.49,13.41 26.65,23.91 4.33,10.45 3.45,21.38 0.27,30.11 -1.34,4.46 -3.79,8.36 -5.78,11.89 -1.99,2.61 -4.42,5.93 -5.83,7.36 -5.52,6.07 -11.44,15.3 -17.69,18.57 -6.11,3.52 -10.1,2.54 -11.05,0.89 -1.11,-1.82 0.71,-4.66 2.21,-9.14 1.8,-4.48 1.99,-10.52 6.63,-22.53 1.32,-2.99 1.56,-4.49 2.49,-6.84 0.25,-1.77 0.66,-3.31 0.59,-5.04 0.1,-3.27 -0.7,-6.7 -2.95,-9.25 -2.17,-2.61 -5.77,-3.75 -8.92,-3.84 -1.63,0.02 -2.95,0.14 -5.51,0.64 -2.8,0.47 -5.46,1.11 -8.76,2.34 -12.77,4.63 -27.29,14.72 -37.79,27.86 -2.61,3.27 -4.88,6.7 -6.75,10.14 -2.46,4.72 -4.96,9.5 -7.49,14.36 -5.28,10.16 -10.53,20.61 -15.82,31.32 -20.83,42.93 -41.15,91.32 -58.79,143.79 -35.59,104.84 -56.59,204.05 -71.77,276.18 -3.57,18.07 -7.08,34.43 -10.44,48.78 -3.15,14.41 -5.81,26.86 -8.58,37 -5.43,20.27 -10.4,31.43 -14.53,31.13"
         style="fill:#414141;fill-opacity:1;fill-rule:nonzero;stroke:none"
         id="path526" />
      <path
         d="m 4579.82,3616.54 c -2.94,-0.94 -4.25,-5.68 -3.66,-14.24 0.73,-8.41 4.59,-20.15 12.38,-32.96 1.85,-3.31 4.3,-6.17 6.67,-9.46 2.41,-3.2 4.7,-6.47 8.99,-10.4 7.8,-7.18 16.69,-12.39 26.41,-16.55 9.73,-4.09 20.34,-7.09 32.01,-8.3 11.63,-1.13 24.5,-0.8 38.25,3.88 3.41,1.24 6.84,2.91 10.16,4.49 3.27,2.07 6.54,4.12 9.56,6.54 2.94,2.84 5.7,5.12 8.39,8.67 2.61,3.78 5.32,7.39 7,11.67 4.2,8.38 5.66,17.25 4.45,25.49 -1.06,8.35 -5.75,15.61 -11.75,20.76 -5.88,5.28 -13.95,8.39 -20.93,10.45 -5.82,1.49 -9.82,1.93 -14.04,2.49 -4.3,0.49 -7.07,0.65 -9.83,1.11 -2.77,0.22 -5.58,1.07 -8.26,1.53 -10.53,2.61 -18.5,6.38 -24.37,9.58 -6,3.07 -9.95,5.67 -13,4.27 -1.41,-0.64 -2.29,-2.18 -2.54,-4.74 -0.28,-2.58 0.04,-6.19 1.77,-10.35 3.09,-8.48 11.5,-19.38 25.09,-27.78 3.47,-1.92 6.95,-4.09 11.16,-5.71 4.09,-1.85 8.66,-3.25 11.98,-4.36 3.36,-1.15 7.2,-2.46 9.27,-3.49 0.81,-0.61 0.68,-0.96 0.82,-1.39 0.13,-0.85 -0.67,-1.42 -1.01,-1.42 -0.09,-0.01 -0.4,-0.32 -0.56,-0.44 -0.3,-0.21 -1.43,-1 -1.93,-1.64 -0.85,-0.57 -1.87,-1.05 -2.71,-1.75 -1.27,-0.39 -2.32,-1.01 -3.63,-1.51 -11.05,-3.91 -28.16,-2.77 -41.3,0.96 -6.68,1.8 -12.77,4.22 -17.18,6.69 -1.86,0.86 -4.61,3.16 -7.16,5.21 -2.45,2.06 -5.23,3.83 -7.32,5.83 -17.86,15.24 -26.75,28.75 -33.18,26.87"
         style="fill:#414141;fill-opacity:1;fill-rule:nonzero;stroke:none"
         id="path528" />
      <path
         d="m 4035.32,3803.04 c -40.84,0.22 -91.22,4.97 -118.15,-32.63 -18.38,-25.65 -15.34,-62.66 6.55,-85.3 28.77,-29.75 72.2,-19.74 105.21,-3.7 18.27,8.89 35.05,20.54 53.36,29.34 15.18,7.31 27.15,9.03 42.45,9.94 35.13,2.09 73.22,-0.98 105.99,14.06 35.67,16.37 41.29,57.69 41.4,92.82 0.24,84.34 -6.67,167.15 -24.62,249.69 -21.35,98.21 -53.52,194.11 -92.35,286.74 -5.21,12.44 -16.53,21.36 -30.75,17.46 -11.74,-3.23 -22.71,-18.22 -17.46,-30.76 30.17,-71.97 56.09,-145.81 76.37,-221.19 20.27,-75.33 35.56,-152.72 37.8,-230.88 0.46,-16.09 0.03,-32.15 0.54,-48.24 0.49,-15.34 1.42,-31.16 -0.69,-46.42 -0.67,-4.88 -2.01,-11.39 -4.11,-16.41 -1.72,-4.08 -3.45,-5.62 -5.54,-6.77 -8.23,-4.48 -21.43,-6.7 -32.92,-7.65 -30.42,-2.52 -62.36,0.34 -92.12,-7.62 -34.24,-9.17 -60.8,-34.47 -93.93,-45.64 -7.34,-2.48 -14.77,-4.51 -22.56,-4.27 -2.35,0.07 -8.15,2.39 -9,3.05 0.32,-0.25 -2.77,3.08 -2.01,1.97 -0.63,0.92 -1.19,1.87 -1.77,2.83 -2.35,3.91 0.21,-1.46 -0.63,1.13 -0.54,1.64 -1.75,7.92 -1.23,3.15 -0.16,1.46 0.19,9.6 -0.52,4.55 0.18,1.26 2.59,9.03 0.82,4.89 0.61,1.43 4.66,7.8 2.52,4.8 2.88,4.05 6.54,6.02 13.41,8.09 20.3,6.11 43.06,3.09 63.94,2.97 32.18,-0.18 32.22,49.82 0,50"
         style="fill:#414141;fill-opacity:1;fill-rule:nonzero;stroke:none"
         id="path530" />
      <path
         d="m 4061.56,4864.01 c -9.3,-58.25 -14.06,-117.25 -14.07,-176.24"
         style="fill:none;stroke:#414141;stroke-width:55;stroke-linecap:butt;stroke-linejoin:miter;stroke-miterlimit:10;stroke-dasharray:none;stroke-opacity:1"
         id="path532" />
      <path
         d="m 5924.18,4864.01 c 9.31,-58.25 14.06,-127.25 14.07,-186.24"
         style="fill:none;stroke:#414141;stroke-width:55;stroke-linecap:butt;stroke-linejoin:miter;stroke-miterlimit:10;stroke-dasharray:none;stroke-opacity:1"
         id="path534" />
      <path
         d="m 4601.32,3729.51 c 0,0 328.91,-72.87 769.97,0"
         style="fill:none;stroke:#414141;stroke-width:58.42;stroke-linecap:butt;stroke-linejoin:miter;stroke-miterlimit:10;stroke-dasharray:none;stroke-opacity:1"
         id="path536" />
      <path
         d="m 5569.08,3766.7 c 0,0 97.24,23.01 163.73,86.32"
         style="fill:none;stroke:#414141;stroke-width:58.42;stroke-linecap:butt;stroke-linejoin:miter;stroke-miterlimit:10;stroke-dasharray:none;stroke-opacity:1"
         id="path538" />
      <path
         d="m 4412.23,3766.7 c 0,0 -97.24,23.01 -163.73,86.32"
         style="fill:none;stroke:#414141;stroke-width:58.42;stroke-linecap:butt;stroke-linejoin:miter;stroke-miterlimit:10;stroke-dasharray:none;stroke-opacity:1"
         id="path540" />
      <g
         id="g542">
        <g
           id="g544"
           clip-path="url(#clipPath548)">
          <g
             id="g550" />
          <g
             id="g568">
            <g
               clip-path="url(#clipPath554)"
               opacity="0.199997"
               id="g566">
              <g
                 id="g564">
                <g
                   clip-path="url(#clipPath558)"
                   id="g562">
                  <path
                     d="m 4135.96,4340.14 c 43.33,-26.67 85,-51.67 115,-93.34 13.33,-18.33 23.33,-38.33 31.67,-58.33 11.66,-21.67 25,-31.67 38.33,-50 21.67,-28.33 23.33,-81.67 31.67,-116.67 10,-43.33 21.66,-90 26.66,-135 3.34,-30 33.34,-116.66 -18.33,-103.33 -30,8.33 -90,48.33 -106.67,73.33 -23.33,38.34 -23.33,90 -28.33,133.34 -5,43.33 -11.67,85 -21.67,126.66 -18.33,75 -48.33,146.67 -66.66,220"
                     style="fill:#414141;fill-opacity:1;fill-rule:nonzero;stroke:none"
                     id="path560" />
                </g>
              </g>
            </g>
          </g>
        </g>
      </g>
      <g
         id="g570">
        <g
           id="g572"
           clip-path="url(#clipPath576)">
          <g
             id="g578" />
          <g
             id="g596">
            <g
               clip-path="url(#clipPath582)"
               opacity="0.199997"
               id="g594">
              <g
                 id="g592">
                <g
                   clip-path="url(#clipPath586)"
                   id="g590">
                  <path
                     d="m 4648.46,4020.97 c 5,-62.5 27.5,-145 82.5,-182.5 77.03,-52.52 174.14,-43.63 262.56,-41.94 84.27,1.61 183.37,-8 256.61,41.94 55,37.5 77.5,120 82.5,182.5 5.47,68.33 7.36,137.04 15.25,205.17 4,34.4 9.63,68.67 18.48,102.18 4.43,16.79 9.63,33.39 15.78,49.64 4.16,10.98 8.17,34.84 17.15,42.35 20.89,-12.44 16.67,-57.24 16.67,-78.47 0,-34.94 -1.56,-67.71 -5.04,-101.7 -6.71,-65.52 1.71,-134.39 1.71,-200.38 0,-66.43 1.33,-132.84 -12.96,-196.2 -6.74,-29.85 -12.66,-63.14 -26.59,-90.08 -17.12,-33.12 -52.2,-42.02 -85.33,-50.34 -64.35,-16.17 -141.51,-9.81 -208.08,-6.71 -66.54,3.09 -132.09,8.99 -198.71,12.03 -75.85,3.46 -158.25,-6.87 -230.24,22.72 -88.09,36.23 -94.77,133.78 -92.02,217.33 0.29,8.72 0.99,17.49 0.59,26.21 -1.62,36.19 -1.66,72.34 -1.66,108.34 0,34.27 -1.64,67.56 -1.67,102.07 -0.03,31.05 6.92,59.57 10,90.05 5.01,49.58 0.38,100.56 3.98,149.35 0.35,4.66 19.09,-22.5 20.07,-24.66 7.72,-17.07 13.99,-34.89 19.42,-52.81 10.45,-34.43 17.18,-69.88 21.88,-105.53 9.64,-73.18 10.59,-147.11 17.15,-220.56"
                     style="fill:#414141;fill-opacity:1;fill-rule:nonzero;stroke:none"
                     id="path588" />
                </g>
              </g>
            </g>
          </g>
        </g>
      </g>
      <g
         id="g598">
        <g
           id="g600"
           clip-path="url(#clipPath604)">
          <g
             id="g606" />
          <g
             id="g624">
            <g
               clip-path="url(#clipPath610)"
               opacity="0.199997"
               id="g622">
              <g
                 id="g620">
                <g
                   clip-path="url(#clipPath614)"
                   id="g618">
                  <path
                     d="m 5845.13,4340.14 c -43.33,-26.67 -85,-51.67 -115,-93.34 -13.33,-18.33 -23.33,-38.33 -31.67,-58.33 -11.66,-21.67 -25,-31.67 -38.33,-50 -21.67,-28.33 -23.33,-81.67 -31.67,-116.67 -10,-43.33 -21.66,-90 -26.66,-135 -3.34,-30 -33.34,-116.66 18.33,-103.33 30,8.33 90,48.33 106.67,73.33 23.33,38.34 23.33,90 28.33,133.34 5,43.33 11.67,85 21.67,126.66 18.33,75 48.33,146.67 66.66,220"
                     style="fill:#414141;fill-opacity:1;fill-rule:nonzero;stroke:none"
                     id="path616" />
                </g>
              </g>
            </g>
          </g>
        </g>
      </g>
      <g
         id="g626">
        <g
           id="g628"
           clip-path="url(#clipPath632)">
          <g
             id="g634" />
          <g
             id="g652">
            <g
               clip-path="url(#clipPath638)"
               opacity="0.199997"
               id="g650">
              <g
                 id="g648">
                <g
                   clip-path="url(#clipPath642)"
                   id="g646">
                  <path
                     d="m 5839.85,4646.95 c -0.85,-42.42 -4.55,-84.78 -11.06,-126.7 8.81,1.27 14.13,10.17 18.17,18.1 19.13,37.56 38.25,75.12 57.37,112.69 6.18,12.13 12.39,24.35 16.3,37.38 8.38,27.97 5.69,57.94 1.86,86.89 -3.38,25.49 -5.47,53.96 -13.66,78.25 -25.4,-16.13 -75.11,-51.43 -82.66,-83.2 -4.06,-17.11 3.81,-33.84 7.71,-50.14 5.74,-23.97 6.63,-48.71 5.97,-73.27"
                     style="fill:#414141;fill-opacity:1;fill-rule:nonzero;stroke:none"
                     id="path644" />
                </g>
              </g>
            </g>
          </g>
        </g>
      </g>
      <g
         id="g654">
        <g
           id="g656"
           clip-path="url(#clipPath660)">
          <g
             id="g662" />
          <g
             id="g680">
            <g
               clip-path="url(#clipPath666)"
               opacity="0.199997"
               id="g678">
              <g
                 id="g676">
                <g
                   clip-path="url(#clipPath670)"
                   id="g674">
                  <path
                     d="m 4134.29,4646.95 c 0.84,-42.42 4.55,-84.78 11.05,-126.7 -8.8,1.27 -14.13,10.17 -18.17,18.1 -19.13,37.56 -38.25,75.12 -57.37,112.69 -6.17,12.13 -12.39,24.35 -16.3,37.38 -8.37,27.97 -5.69,57.94 -1.86,86.89 3.38,25.49 5.47,53.96 13.66,78.25 25.4,-16.13 75.11,-51.43 82.66,-83.2 4.08,-17.11 -3.81,-33.84 -7.71,-50.14 -5.74,-23.97 -6.62,-48.71 -5.96,-73.27"
                     style="fill:#414141;fill-opacity:1;fill-rule:nonzero;stroke:none"
                     id="path672" />
                </g>
              </g>
            </g>
          </g>
        </g>
      </g>
      <path
         d="m 4474.54,5719.3 c 0,-96.33 -56.52,-174.39 -126.25,-174.39 -69.76,0 -126.31,78.06 -126.31,174.39 0,96.33 56.55,174.43 126.31,174.43 69.73,0 126.25,-78.1 126.25,-174.43"
         style="fill:#414141;fill-opacity:1;fill-rule:nonzero;stroke:none"
         id="path682" />
      <path
         d="m 4335.39,5814.7 c 0,-33.21 -26.93,-60.15 -60.12,-60.15 -33.22,0 -60.16,26.94 -60.16,60.15 0,33.18 26.94,60.15 60.16,60.15 33.19,0 60.12,-26.97 60.12,-60.15"
         style="fill:#ffffff;fill-opacity:1;fill-rule:nonzero;stroke:none"
         id="path684" />
      <path
         d="m 5774,5719.3 c 0,-96.33 -56.52,-174.39 -126.25,-174.39 -69.75,0 -126.3,78.06 -126.3,174.39 0,96.33 56.55,174.43 126.3,174.43 69.73,0 126.25,-78.1 126.25,-174.43"
         style="fill:#414141;fill-opacity:1;fill-rule:nonzero;stroke:none"
         id="path686" />
      <path
         d="m 5634.86,5814.7 c 0,-33.21 -26.93,-60.15 -60.14,-60.15 -33.2,0 -60.15,26.94 -60.15,60.15 0,33.18 26.95,60.15 60.15,60.15 33.21,0 60.14,-26.97 60.14,-60.15"
         style="fill:#ffffff;fill-opacity:1;fill-rule:nonzero;stroke:none"
         id="path688" />
      <path
         d="m 5834.77,4749.96 c 30.54,21.73 60.85,44.42 86.67,71.75 27.99,29.65 49.86,63.77 66.45,100.95 35.03,78.54 48.52,163.16 49.45,248.77 0.47,43.08 -1.85,86.18 -5.18,129.12 -3.57,45.91 -8.7,92.24 -20.63,136.84 -10.85,40.6 -28.63,78.96 -38.12,119.99 -9.47,40.95 -7.28,82.9 -4.23,124.51 6.42,87.49 15.69,175.41 -23.19,257.38 -32.98,69.51 -93.68,125.85 -165.76,152.61 -52.35,19.46 -110.8,27.01 -166.32,24.42 -50.22,-2.34 -99.24,-13.67 -144.6,-35.53 -54.35,-26.19 -99.15,-68.63 -132.72,-118.36 -9.77,-14.48 -18.43,-29.65 -26.31,-45.23 8.64,4.95 17.27,9.9 25.91,14.85 -76.96,4.83 -153.74,11.15 -230.8,14.43 -116.98,4.98 -233.69,1.03 -350.47,-6.8 -33.22,-2.23 -66.44,-4.64 -99.61,-7.63 8.63,-4.95 17.27,-9.9 25.91,-14.85 -29.36,58.07 -71.41,109.37 -126.2,145.08 -44.26,28.85 -95,44.91 -147.13,51.42 -59.43,7.43 -122.29,1.75 -179.53,-16.13 -65.44,-20.45 -119.71,-61.48 -159.01,-117.54 -50.79,-72.42 -58.34,-158.58 -54.16,-244.46 2.07,-42.45 6.05,-85.01 4.44,-127.57 -1.49,-39.34 -15.73,-76.02 -28.16,-112.88 -27.59,-81.89 -31.98,-169.71 -35.95,-255.43 -3.9,-84.53 -0.63,-170.94 23.82,-252.49 23.91,-79.79 65.79,-149.66 130.88,-202.24 15.1,-12.19 30.7,-23.73 46.51,-34.98 13.21,-9.39 33.38,-2.33 41.04,10.75 8.81,15.07 2.48,31.64 -10.76,41.06 -27.05,19.24 -52.88,39.19 -75.82,63.77 -25.33,27.12 -44.18,59.32 -58.44,93.49 -30.09,72.09 -38.97,150.18 -38.64,227.7 0.18,40.65 2.86,81.21 5.73,121.75 2.83,39.96 5.84,80.05 14.63,119.22 8.54,38.08 24.18,73.92 34.41,111.49 10.86,39.88 11.96,80.41 10.33,121.45 -3.13,78.25 -15.41,159.66 12.48,234.99 22.58,61 75.17,115.98 135.53,138.4 16.68,6.18 34.07,10.93 51.48,14.57 6.74,1.42 13.53,2.66 20.34,3.75 3.38,0.54 13.77,1.73 4.41,0.73 4.14,0.43 8.26,1.01 12.4,1.44 18.69,1.91 37.51,2.62 56.29,2.01 10.04,-0.33 20.06,-1.05 30.04,-2.16 2.73,-0.32 8.53,-1.16 2.33,-0.23 2.32,-0.35 4.63,-0.68 6.94,-1.05 5.87,-0.95 11.71,-2.05 17.53,-3.31 10.8,-2.32 21.49,-5.17 32,-8.59 5.62,-1.82 11.18,-3.81 16.69,-5.95 1.89,-0.74 7.14,-2.92 2.35,-0.87 3.2,-1.36 6.37,-2.8 9.51,-4.27 11.33,-5.34 22.33,-11.41 32.89,-18.15 5.1,-3.25 10.06,-6.7 14.97,-10.22 1.15,-0.84 2.29,-1.68 3.42,-2.53 -1.02,0.76 -3.92,3.14 0.72,-0.57 2.64,-2.12 5.26,-4.28 7.83,-6.47 21.9,-18.73 40.13,-39.65 54.7,-61.46 9.39,-14.06 17.73,-28.74 25.35,-43.81 4.37,-8.64 16.12,-15.75 25.9,-14.86 85.89,7.74 172.13,12.97 258.31,15.7 110.76,3.51 221.28,-1.71 331.79,-9.09 30.27,-2.02 60.5,-4.71 90.78,-6.61 9.87,-0.61 21.44,6.02 25.9,14.86 14.24,28.19 30.45,53.81 49.76,75.5 9.09,10.23 18.82,19.87 29.17,28.81 2.57,2.23 5.19,4.39 7.83,6.51 1.11,0.92 2.23,1.83 3.38,2.71 -1.02,-0.78 -3.99,-2.96 0.73,0.47 5.28,3.82 10.62,7.56 16.11,11.06 10.2,6.51 20.8,12.38 31.71,17.58 2.75,1.31 5.54,2.55 8.31,3.81 5.28,2.39 -3.03,-1.08 2.35,0.96 5.95,2.24 11.85,4.52 17.88,6.5 10.51,3.47 21.21,6.37 32.02,8.73 5.05,1.11 10.12,2.1 15.22,2.98 2.7,0.45 5.42,0.84 8.12,1.29 5.25,0.89 -4.81,-0.5 2.36,0.31 19.81,2.19 39.7,3.07 59.64,2.38 9.06,-0.3 18.11,-0.9 27.13,-1.79 3.89,-0.38 7.77,-0.85 11.64,-1.29 6.06,-0.7 -2.97,0.5 -1.14,0.16 2.16,-0.4 4.38,-0.63 6.55,-0.97 18.82,-2.93 37.43,-7.05 55.62,-12.68 49.75,-15.4 93.64,-47.09 123.86,-90.18 22.01,-31.4 36.4,-66.1 42.26,-104.08 5.94,-38.53 3.21,-78.4 0.27,-117.08 -3.11,-40.74 -7.52,-81.63 -6.07,-122.55 1.47,-41.34 11.83,-81.11 25.33,-119.99 13.69,-39.44 26.42,-77.9 32.9,-119.31 6.33,-40.47 8.72,-81.73 10.73,-122.62 3.83,-78.04 2.21,-157.01 -19.06,-232.7 -10.48,-37.36 -25.2,-73.89 -46.02,-106.74 -18.34,-28.94 -42.53,-53.3 -68.94,-74.94 -11.94,-9.8 -24.32,-18.75 -37.25,-27.96 -13.19,-9.38 -19.47,-26.18 -10.76,-41.06 7.62,-13.02 27.77,-20.19 41.04,-10.75"
         style="fill:#414141;fill-opacity:1;fill-rule:nonzero;stroke:none"
         id="path690" />
      <path
         d="m 5101.47,5579.25 c 0,-10.34 -8.39,-18.73 -18.73,-18.73 -10.35,0 -18.74,8.39 -18.74,18.73 0,10.36 8.39,18.75 18.74,18.75 10.34,0 18.73,-8.39 18.73,-18.75"
         style="fill:#414141;fill-opacity:1;fill-rule:nonzero;stroke:none"
         id="path692" />
      <path
         d="m 5091.43,5512.03 c -3.63,-9.55 -5.04,-20.46 -5.45,-30.57 -0.88,-21.89 6.21,-43.63 21.31,-59.71 11.35,-12.08 26.63,-19.75 42.26,-24.66 9.36,-2.95 20.87,3.47 23.06,13.09 2.33,10.21 -3.07,19.92 -13.09,23.06 -1.7,0.54 -3.4,1.09 -5.07,1.7 -0.75,0.27 -5.1,2.3 -2.49,0.92 2.67,-1.4 -1.51,0.74 -2.17,1.05 -1.54,0.76 -3.08,1.58 -4.58,2.43 -2.33,1.34 -4.54,2.85 -6.75,4.4 -2.63,1.83 3.17,-2.74 0.22,-0.11 -1.09,0.98 -2.19,1.93 -3.23,2.95 -1.55,1.52 -2.92,3.18 -4.37,4.8 -1.69,1.9 2.69,-3.94 0.27,-0.24 -0.64,0.97 -1.28,1.93 -1.87,2.91 -1.08,1.81 -2.02,3.68 -2.93,5.58 -1.75,3.53 1.31,-3.8 0.47,-1.1 -0.36,1.16 -0.83,2.27 -1.19,3.41 -0.59,1.88 -1.09,3.77 -1.5,5.69 -0.19,0.87 -0.37,1.75 -0.53,2.63 -0.82,4.8 0.34,-3.58 0.1,-0.89 -0.35,3.7 -0.56,7.37 -0.45,11.08 0.05,1.65 0.14,3.31 0.28,4.96 0.06,0.74 0.15,1.47 0.22,2.21 0.39,4.01 -0.54,-3.3 -0.25,-1.69 0.46,2.58 0.85,5.17 1.47,7.74 0.65,2.82 1.38,5.67 2.42,8.4 3.48,9.19 -3.86,20.96 -13.09,23.07 -10.7,2.43 -19.34,-3.27 -23.07,-13.11"
         style="fill:#414141;fill-opacity:1;fill-rule:nonzero;stroke:none"
         id="path694" />
      <path
         d="m 4892.79,5579.25 c 0,-10.34 8.39,-18.73 18.73,-18.73 10.36,0 18.75,8.39 18.75,18.73 0,10.36 -8.39,18.75 -18.75,18.75 -10.34,0 -18.73,-8.39 -18.73,-18.75"
         style="fill:#414141;fill-opacity:1;fill-rule:nonzero;stroke:none"
         id="path696" />
      <path
         d="m 4863.91,5502.07 c 0.83,-2.18 1.45,-4.44 2.01,-6.69 0.6,-2.38 1.11,-4.78 1.52,-7.2 0.13,-0.75 0.23,-1.5 0.36,-2.25 0.47,-2.7 -0.64,5.55 -0.32,2.3 0.17,-1.7 0.35,-3.39 0.45,-5.1 0.22,-3.6 0.21,-7.21 -0.05,-10.83 -0.06,-0.85 -0.16,-1.69 -0.23,-2.55 -0.34,-3.86 0.88,5.1 0.16,1.27 -0.38,-2.04 -0.75,-4.06 -1.27,-6.04 -0.5,-1.93 -1.14,-3.8 -1.77,-5.68 -0.13,-0.39 -0.31,-0.76 -0.43,-1.16 -0.67,-2.07 1.92,4.2 0.95,2.24 -0.55,-1.12 -1.04,-2.27 -1.61,-3.37 -0.93,-1.78 -1.94,-3.48 -3.04,-5.15 -0.32,-0.47 -0.68,-0.94 -0.99,-1.43 -1.1,-1.72 -0.93,0.42 1.33,1.64 -0.85,-0.45 -1.69,-2.05 -2.34,-2.77 -1.81,-2.03 -3.81,-3.84 -5.82,-5.67 -0.58,-0.52 -2.47,-1.83 -0.05,-0.11 2.64,1.87 0.03,0.03 -0.57,-0.4 -1.16,-0.82 -2.34,-1.61 -3.55,-2.36 -2.94,-1.83 -6,-3.35 -9.11,-4.87 -1.19,-0.59 -2.79,-0.6 1.09,0.43 -0.8,-0.21 -1.59,-0.64 -2.36,-0.93 -2.07,-0.78 -4.17,-1.48 -6.29,-2.16 -9.34,-2.93 -16.29,-13.18 -13.09,-23.04 3.03,-9.39 13.04,-16.25 23.06,-13.1 26.91,8.46 49.06,25.26 58.98,52.23 6.18,16.81 5.61,35.89 1.83,53.16 -0.71,3.22 -1.52,6.47 -2.69,9.55 -3.46,9.15 -12.8,16.43 -23.06,13.11 -8.93,-2.89 -16.83,-13.26 -13.1,-23.07"
         style="fill:#414141;fill-opacity:1;fill-rule:nonzero;stroke:none"
         id="path698" />
      <path
         d="m 4883.44,5462.92 c 0,0 100.48,-95.87 224.61,0"
         style="fill:none;stroke:#414141;stroke-width:40;stroke-linecap:butt;stroke-linejoin:miter;stroke-miterlimit:10;stroke-dasharray:none;stroke-opacity:1"
         id="path700" />
    </g>
  </g>
</svg>
